M48
METRIC,TZ
T1C1.702
T2C2.200
T3C3.000
T4C3.048
T5C3.988
%
G90
G05
T1
X60008Y-76200
X60008Y-95250
X60008Y-114300
X60008Y-133350
X70168Y-76200
X70168Y-95250
X70168Y-114300
X70168Y-133350
X79057Y-76200
X79057Y-95250
X79057Y-114300
X79057Y-133350
X89218Y-76200
X89218Y-95250
X89218Y-114300
X89218Y-133350
X98108Y-76200
X98108Y-95250
X98108Y-114300
X98108Y-133350
X108268Y-76200
X108268Y-95250
X108268Y-114300
X108268Y-133350
X117158Y-76200
X117158Y-95250
X117158Y-114300
X117158Y-133350
X127318Y-76200
X127318Y-95250
X127318Y-114300
X127318Y-133350
X136207Y-76200
X136207Y-95250
X136207Y-114300
X136207Y-133350
X145732Y-133350
X146368Y-76200
X146368Y-95250
X146368Y-114300
X146368Y-133350
X155257Y-76200
X155257Y-95250
X155257Y-114300
X155257Y-133350
X155892Y-133350
X165418Y-76200
X165418Y-95250
X165418Y-114300
X165418Y-133350
X174308Y-76200
X174308Y-95250
X174308Y-114300
X174308Y-133350
X184468Y-76200
X184468Y-95250
X184468Y-114300
X184468Y-133350
X193358Y-76200
X193358Y-95250
X193358Y-114300
X193358Y-133350
X203517Y-76200
X203517Y-95250
X203517Y-114300
X203517Y-133350
X212408Y-76200
X212408Y-95250
X212408Y-114300
X212408Y-133350
X222568Y-76200
X222568Y-95250
X222568Y-114300
X222568Y-133350
X231458Y-76200
X231458Y-95250
X231458Y-114300
X231458Y-133350
X241617Y-76200
X241617Y-95250
X241617Y-114300
X241617Y-133350
T2
X74613Y-85725
X74613Y-123825
X112713Y-65881
X131763Y-50006
X131763Y-104775
X169862Y-50006
X169862Y-104775
X188913Y-65881
X227013Y-85725
X227013Y-123825
T3
X62548Y-81280
X62548Y-100330
X62548Y-119380
X62548Y-138430
X68897Y-78740
X68897Y-97790
X68897Y-116840
X68897Y-135890
X81597Y-81280
X81597Y-100330
X81597Y-119380
X81597Y-138430
X87948Y-78740
X87948Y-97790
X87948Y-116840
X87948Y-135890
X100648Y-81280
X100648Y-100330
X100648Y-119380
X100648Y-138430
X106998Y-78740
X106998Y-97790
X106998Y-116840
X106998Y-135890
X118427Y-130810
X119698Y-81280
X119698Y-100330
X119698Y-119380
X124777Y-128270
X126048Y-78740
X126048Y-97790
X126048Y-116840
X137477Y-130810
X138748Y-81280
X138748Y-100330
X138748Y-119380
X143827Y-128270
X145098Y-78740
X145098Y-97790
X145098Y-116840
X156528Y-130810
X157798Y-81280
X157798Y-100330
X157798Y-119380
X162878Y-128270
X164148Y-78740
X164148Y-97790
X164148Y-116840
X176848Y-81280
X176848Y-100330
X176848Y-119380
X176848Y-138430
X183198Y-78740
X183198Y-97790
X183198Y-116840
X183198Y-135890
X195898Y-81280
X195898Y-100330
X195898Y-119380
X195898Y-138430
X202248Y-78740
X202248Y-97790
X202248Y-116840
X202248Y-135890
X214948Y-81280
X214948Y-100330
X214948Y-119380
X214948Y-138430
X221298Y-78740
X221298Y-97790
X221298Y-116840
X221298Y-135890
X233998Y-81280
X233998Y-100330
X233998Y-119380
X233998Y-138430
X240348Y-78740
X240348Y-97790
X240348Y-116840
X240348Y-135890
T4
X138913Y-140335
X162713Y-140335
T5
X65087Y-76200
X65087Y-95250
X65087Y-114300
X65087Y-133350
X84138Y-76200
X84138Y-95250
X84138Y-114300
X84138Y-133350
X103188Y-76200
X103188Y-95250
X103188Y-114300
X103188Y-133350
X122238Y-76200
X122238Y-95250
X122238Y-114300
X122238Y-133350
X138913Y-125095
X141288Y-76200
X141288Y-95250
X141288Y-114300
X141288Y-133350
X150813Y-133350
X160338Y-76200
X160338Y-95250
X160338Y-114300
X160338Y-133350
X162713Y-125095
X179388Y-76200
X179388Y-95250
X179388Y-114300
X179388Y-133350
X198438Y-76200
X198438Y-95250
X198438Y-114300
X198438Y-133350
X217488Y-76200
X217488Y-95250
X217488Y-114300
X217488Y-133350
X236538Y-76200
X236538Y-95250
X236538Y-114300
X236538Y-133350
T0
M30
