M48
METRIC,TZ
T1C0.400
T2C0.813
T3C1.000
T4C1.300
T5C1.499
T6C1.500
%
G90
G05
T1
X56356Y-140494
X57944Y-48419
X57944Y-142012
X57956Y-49431
X65881Y-57944
X68263Y-59531
X71438Y-54769
X71438Y-124619
X72231Y-73025
X72647Y-92453
X72647Y-111541
X72647Y-130591
X73025Y-53181
X73025Y-66675
X73372Y-122350
X73819Y-51594
X75406Y-61913
X76200Y-105569
X77788Y-79375
X77788Y-83130
X77788Y-98480
X77788Y-102180
X77788Y-103981
X78535Y-62708
X81756Y-77788
X82550Y-73025
X82550Y-79293
X84931Y-72936
X88900Y-72211
X90375Y-84250
X90488Y-70644
X91698Y-92453
X110331Y-73819
X110748Y-92491
X110748Y-111541
X110748Y-130552
X110748Y-133766
X129798Y-92491
X145788Y-120650
X147237Y-120650
X148431Y-73819
X148848Y-92491
X148848Y-112296
X153987Y-122002
X153987Y-123451
X165100Y-122002
X165100Y-123825
X167481Y-73819
X167898Y-92453
X186531Y-73819
X186948Y-92491
X186948Y-112335
X186948Y-131385
X205998Y-92453
X223044Y-51594
X223044Y-58738
X224631Y-52388
X224631Y-57150
X224631Y-73819
X225048Y-92453
X225048Y-112335
X225048Y-131346
X234156Y-62708
X236538Y-53181
X236538Y-64294
X238919Y-61913
X244098Y-92453
T2
X62566Y-49539
X62566Y-64759
X65106Y-49539
X65106Y-64759
X67646Y-49539
X67646Y-64759
X70186Y-49539
X70186Y-64759
X72726Y-49539
X72726Y-64759
X75266Y-49539
X75266Y-64759
X77806Y-49539
X77806Y-64759
X80346Y-49539
X80346Y-64759
X82886Y-49539
X82886Y-64759
X85426Y-49539
X85426Y-64759
X87966Y-49539
X87966Y-64759
X90506Y-49539
X90506Y-64759
X226219Y-53340
X226219Y-55880
X226219Y-58420
X226219Y-60960
T3
X61188Y-84931
X61188Y-103981
X61188Y-123031
X61188Y-141288
X68988Y-84931
X68988Y-103981
X68988Y-123031
X68988Y-141288
X80238Y-86519
X80238Y-105569
X80238Y-124619
X80238Y-141288
X88038Y-86519
X88038Y-105569
X88038Y-124619
X88038Y-141288
X99288Y-103981
X99288Y-123031
X99288Y-141288
X99475Y-84931
X107088Y-103981
X107088Y-123031
X107088Y-141288
X107275Y-84931
X118338Y-86519
X118338Y-105569
X118338Y-124619
X118338Y-141288
X126138Y-86519
X126138Y-105569
X126138Y-124619
X126138Y-141288
X130969Y-131831
X130969Y-139631
X137388Y-84931
X137994Y-103981
X142338Y-122238
X145188Y-84931
X145794Y-103981
X150138Y-122238
X151675Y-124619
X156438Y-86519
X156438Y-105569
X159475Y-124619
X164237Y-86519
X164237Y-105569
X169069Y-131831
X169069Y-139631
X175487Y-84931
X175487Y-103981
X175487Y-123031
X175487Y-141288
X183288Y-84931
X183288Y-103981
X183288Y-123031
X183288Y-141288
X194538Y-86519
X194538Y-105569
X194538Y-124619
X195144Y-141288
X202337Y-86519
X202337Y-105569
X202337Y-124619
X202944Y-141288
X213588Y-103981
X213588Y-123031
X213588Y-141288
X214194Y-84931
X221388Y-103981
X221388Y-123031
X221388Y-141288
X221994Y-84931
X232638Y-86519
X232638Y-105569
X232638Y-124619
X232638Y-141288
X234038Y-49900
X234038Y-64400
X236538Y-49900
X239038Y-49900
X239038Y-64400
X240438Y-86519
X240438Y-105569
X240438Y-124619
X240438Y-141288
T4
X96837Y-53900
X96837Y-60400
T5
X61278Y-73660
X61278Y-92710
X61278Y-111760
X61278Y-130810
X67628Y-71120
X67628Y-90170
X67628Y-109220
X67628Y-128270
X80328Y-73660
X80328Y-92710
X80328Y-111760
X80328Y-130810
X86678Y-71120
X86678Y-90170
X86678Y-109220
X86678Y-128270
X99378Y-73660
X99378Y-92710
X99378Y-111760
X99378Y-130810
X105727Y-71120
X105727Y-90170
X105727Y-109220
X105727Y-128270
X118427Y-73660
X118427Y-92710
X118427Y-111760
X119698Y-138430
X124777Y-71120
X124777Y-90170
X124777Y-109220
X126048Y-135890
X137477Y-73660
X137477Y-92710
X137477Y-111760
X138748Y-138430
X143827Y-71120
X143827Y-90170
X143827Y-109220
X145098Y-135890
X148273Y-138430
X154623Y-135890
X156528Y-73660
X156528Y-92710
X156528Y-111760
X157798Y-138430
X162878Y-71120
X162878Y-90170
X162878Y-109220
X164148Y-135890
X175578Y-73660
X175578Y-92710
X175578Y-111760
X175578Y-130810
X181928Y-71120
X181928Y-90170
X181928Y-109220
X181928Y-128270
X194628Y-73660
X194628Y-92710
X194628Y-111760
X194628Y-130810
X200978Y-71120
X200978Y-90170
X200978Y-109220
X200978Y-128270
X213677Y-73660
X213677Y-92710
X213677Y-111760
X213677Y-130810
X220028Y-71120
X220028Y-90170
X220028Y-109220
X220028Y-128270
X232728Y-73660
X232728Y-92710
X232728Y-111760
X232728Y-130810
X239077Y-71120
X239077Y-90170
X239077Y-109220
X239077Y-128270
T3
X93587Y-55100G85X93587Y-54700
G05
X93587Y-59600G85X93587Y-59200
G05
X100087Y-55100G85X100087Y-54700
G05
X100087Y-59600G85X100087Y-59200
G05
T6
X230938Y-56750G85X230938Y-58050
G05
X242138Y-56750G85X242138Y-58050
G05
T0
M30
