G04 #@! TF.GenerationSoftware,KiCad,Pcbnew,(6.0.4-0)*
G04 #@! TF.CreationDate,2022-05-09T18:43:36-05:00*
G04 #@! TF.ProjectId,freaku4X,66726561-6b75-4345-982e-6b696361645f,rev?*
G04 #@! TF.SameCoordinates,Original*
G04 #@! TF.FileFunction,Copper,L1,Top*
G04 #@! TF.FilePolarity,Positive*
%FSLAX46Y46*%
G04 Gerber Fmt 4.6, Leading zero omitted, Abs format (unit mm)*
G04 Created by KiCad (PCBNEW (6.0.4-0)) date 2022-05-09 18:43:36*
%MOMM*%
%LPD*%
G01*
G04 APERTURE LIST*
G04 #@! TA.AperFunction,ComponentPad*
%ADD10C,2.286000*%
G04 #@! TD*
G04 #@! TA.AperFunction,ComponentPad*
%ADD11C,1.397000*%
G04 #@! TD*
G04 #@! TA.AperFunction,ComponentPad*
%ADD12C,2.000000*%
G04 #@! TD*
G04 #@! TA.AperFunction,ComponentPad*
%ADD13R,2.000000X2.000000*%
G04 #@! TD*
G04 #@! TA.AperFunction,ComponentPad*
%ADD14R,2.000000X3.200000*%
G04 #@! TD*
G04 #@! TA.AperFunction,ComponentPad*
%ADD15C,1.524000*%
G04 #@! TD*
G04 #@! TA.AperFunction,SMDPad,CuDef*
%ADD16R,1.600000X1.200000*%
G04 #@! TD*
G04 #@! TA.AperFunction,ComponentPad*
%ADD17R,1.600000X1.600000*%
G04 #@! TD*
G04 #@! TA.AperFunction,SMDPad,CuDef*
%ADD18R,2.900000X0.500000*%
G04 #@! TD*
G04 #@! TA.AperFunction,ComponentPad*
%ADD19C,1.600000*%
G04 #@! TD*
G04 #@! TA.AperFunction,SMDPad,CuDef*
%ADD20R,0.500000X2.900000*%
G04 #@! TD*
G04 #@! TA.AperFunction,SMDPad,CuDef*
%ADD21R,1.200000X1.600000*%
G04 #@! TD*
G04 #@! TA.AperFunction,ViaPad*
%ADD22C,0.800000*%
G04 #@! TD*
G04 #@! TA.AperFunction,Conductor*
%ADD23C,0.250000*%
G04 #@! TD*
G04 APERTURE END LIST*
D10*
G04 #@! TO.P,SW13,1,A*
G04 #@! TO.N,Net-(D16-Pad2)*
X86677500Y-90170000D03*
G04 #@! TO.P,SW13,2,B*
G04 #@! TO.N,col1*
X80327500Y-92710000D03*
G04 #@! TD*
G04 #@! TO.P,SW16,1,A*
G04 #@! TO.N,Net-(D13-Pad2)*
X143827500Y-90170000D03*
G04 #@! TO.P,SW16,2,B*
G04 #@! TO.N,col3*
X137477500Y-92710000D03*
G04 #@! TD*
G04 #@! TO.P,SW9,1,A*
G04 #@! TO.N,Net-(D9-Pad2)*
X200977500Y-71120000D03*
G04 #@! TO.P,SW9,2,B*
G04 #@! TO.N,col4*
X194627500Y-73660000D03*
G04 #@! TD*
G04 #@! TO.P,SW40,1,A*
G04 #@! TO.N,Net-(D35-Pad2)*
X220027500Y-128270000D03*
G04 #@! TO.P,SW40,2,B*
G04 #@! TO.N,col5*
X213677500Y-130810000D03*
G04 #@! TD*
G04 #@! TO.P,SW41,1,A*
G04 #@! TO.N,Net-(D40-Pad2)*
X239077500Y-128270000D03*
G04 #@! TO.P,SW41,2,B*
G04 #@! TO.N,col5*
X232727500Y-130810000D03*
G04 #@! TD*
G04 #@! TO.P,SW21,1,A*
G04 #@! TO.N,Net-(D20-Pad2)*
X239077500Y-90170000D03*
G04 #@! TO.P,SW21,2,B*
G04 #@! TO.N,col5*
X232727500Y-92710000D03*
G04 #@! TD*
G04 #@! TO.P,SW14,1,A*
G04 #@! TO.N,Net-(D12-Pad2)*
X105727500Y-90170000D03*
G04 #@! TO.P,SW14,2,B*
G04 #@! TO.N,col2*
X99377500Y-92710000D03*
G04 #@! TD*
G04 #@! TO.P,SW37,1,A*
G04 #@! TO.N,Net-(D38-Pad2)*
X157797500Y-138430000D03*
G04 #@! TO.P,SW37,2,B*
G04 #@! TO.N,col3*
X164147500Y-135890000D03*
G04 #@! TD*
G04 #@! TO.P,SW28,1,A*
G04 #@! TO.N,Net-(D24-Pad2)*
X181927500Y-109220000D03*
G04 #@! TO.P,SW28,2,B*
G04 #@! TO.N,col4*
X175577500Y-111760000D03*
G04 #@! TD*
G04 #@! TO.P,SW23,1,A*
G04 #@! TO.N,Net-(D26-Pad2)*
X86677500Y-109220000D03*
G04 #@! TO.P,SW23,2,B*
G04 #@! TO.N,col1*
X80327500Y-111760000D03*
G04 #@! TD*
G04 #@! TO.P,SW6,1,A*
G04 #@! TO.N,Net-(D3-Pad2)*
X143827500Y-71120000D03*
G04 #@! TO.P,SW6,2,B*
G04 #@! TO.N,col3*
X137477500Y-73660000D03*
G04 #@! TD*
D11*
G04 #@! TO.P,OL1,1,SDA*
G04 #@! TO.N,sda*
X226218750Y-60960000D03*
G04 #@! TO.P,OL1,2,SCL*
G04 #@! TO.N,scl*
X226218750Y-58420000D03*
G04 #@! TO.P,OL1,3,VCC*
G04 #@! TO.N,vcc*
X226218750Y-55880000D03*
G04 #@! TO.P,OL1,4,GND*
G04 #@! TO.N,gnd*
X226218750Y-53340000D03*
G04 #@! TD*
D10*
G04 #@! TO.P,SW30,1,A*
G04 #@! TO.N,Net-(D25-Pad2)*
X220027500Y-109220000D03*
G04 #@! TO.P,SW30,2,B*
G04 #@! TO.N,col5*
X213677500Y-111760000D03*
G04 #@! TD*
G04 #@! TO.P,SW22,1,A*
G04 #@! TO.N,Net-(D21-Pad2)*
X67627500Y-109220000D03*
G04 #@! TO.P,SW22,2,B*
G04 #@! TO.N,col1*
X61277500Y-111760000D03*
G04 #@! TD*
G04 #@! TO.P,SW11,1,A*
G04 #@! TO.N,Net-(D10-Pad2)*
X239077500Y-71120000D03*
G04 #@! TO.P,SW11,2,B*
G04 #@! TO.N,col5*
X232727500Y-73660000D03*
G04 #@! TD*
G04 #@! TO.P,SW32,1,A*
G04 #@! TO.N,Net-(D31-Pad2)*
X67627500Y-128270000D03*
G04 #@! TO.P,SW32,2,B*
G04 #@! TO.N,col1*
X61277500Y-130810000D03*
G04 #@! TD*
G04 #@! TO.P,SW7,1,A*
G04 #@! TO.N,Net-(D8-Pad2)*
X162877500Y-71120000D03*
G04 #@! TO.P,SW7,2,B*
G04 #@! TO.N,col3*
X156527500Y-73660000D03*
G04 #@! TD*
G04 #@! TO.P,SW38,1,A*
G04 #@! TO.N,Net-(D34-Pad2)*
X181927500Y-128270000D03*
G04 #@! TO.P,SW38,2,B*
G04 #@! TO.N,col4*
X175577500Y-130810000D03*
G04 #@! TD*
G04 #@! TO.P,SW36,1,A*
G04 #@! TO.N,Net-(D33-Pad2)*
X138747500Y-138430000D03*
G04 #@! TO.P,SW36,2,B*
G04 #@! TO.N,col3*
X145097500Y-135890000D03*
G04 #@! TD*
G04 #@! TO.P,SW35,1,A*
G04 #@! TO.N,Net-(D37-Pad2)*
X119697500Y-138430000D03*
G04 #@! TO.P,SW35,2,B*
G04 #@! TO.N,col2*
X126047500Y-135890000D03*
G04 #@! TD*
G04 #@! TO.P,SW26,1,A*
G04 #@! TO.N,Net-(D23-Pad2)*
X143827500Y-109220000D03*
G04 #@! TO.P,SW26,2,B*
G04 #@! TO.N,col3*
X137477500Y-111760000D03*
G04 #@! TD*
G04 #@! TO.P,SW25,1,A*
G04 #@! TO.N,Net-(D27-Pad2)*
X124777500Y-109220000D03*
G04 #@! TO.P,SW25,2,B*
G04 #@! TO.N,col2*
X118427500Y-111760000D03*
G04 #@! TD*
G04 #@! TO.P,SW18,1,A*
G04 #@! TO.N,Net-(D14-Pad2)*
X181927500Y-90170000D03*
G04 #@! TO.P,SW18,2,B*
G04 #@! TO.N,col4*
X175577500Y-92710000D03*
G04 #@! TD*
D12*
G04 #@! TO.P,SW43,1,A*
G04 #@! TO.N,vcc*
X96837500Y-53900000D03*
G04 #@! TO.P,SW43,2,B*
G04 #@! TO.N,rst*
X96837500Y-60400000D03*
G04 #@! TD*
D10*
G04 #@! TO.P,SW20,1,A*
G04 #@! TO.N,Net-(D15-Pad2)*
X220027500Y-90170000D03*
G04 #@! TO.P,SW20,2,B*
G04 #@! TO.N,col5*
X213677500Y-92710000D03*
G04 #@! TD*
G04 #@! TO.P,SW19,1,A*
G04 #@! TO.N,Net-(D19-Pad2)*
X200977500Y-90170000D03*
G04 #@! TO.P,SW19,2,B*
G04 #@! TO.N,col4*
X194627500Y-92710000D03*
G04 #@! TD*
G04 #@! TO.P,SW17,1,A*
G04 #@! TO.N,Net-(D18-Pad2)*
X162877500Y-90170000D03*
G04 #@! TO.P,SW17,2,B*
G04 #@! TO.N,col3*
X156527500Y-92710000D03*
G04 #@! TD*
G04 #@! TO.P,SW12,1,A*
G04 #@! TO.N,Net-(D11-Pad2)*
X67627500Y-90170000D03*
G04 #@! TO.P,SW12,2,B*
G04 #@! TO.N,col1*
X61277500Y-92710000D03*
G04 #@! TD*
G04 #@! TO.P,SW3,1,A*
G04 #@! TO.N,Net-(D6-Pad2)*
X86677500Y-71120000D03*
G04 #@! TO.P,SW3,2,B*
G04 #@! TO.N,col1*
X80327500Y-73660000D03*
G04 #@! TD*
G04 #@! TO.P,SW2,1,A*
G04 #@! TO.N,Net-(D1-Pad2)*
X67627500Y-71120000D03*
G04 #@! TO.P,SW2,2,B*
G04 #@! TO.N,col1*
X61277500Y-73660000D03*
G04 #@! TD*
G04 #@! TO.P,SW5,1,A*
G04 #@! TO.N,Net-(D7-Pad2)*
X124777500Y-71120000D03*
G04 #@! TO.P,SW5,2,B*
G04 #@! TO.N,col2*
X118427500Y-73660000D03*
G04 #@! TD*
G04 #@! TO.P,SW44,1,A*
G04 #@! TO.N,Net-(D33-Pad2)*
X148272500Y-138430000D03*
G04 #@! TO.P,SW44,2,B*
G04 #@! TO.N,col3*
X154622500Y-135890000D03*
G04 #@! TD*
G04 #@! TO.P,SW33,1,A*
G04 #@! TO.N,Net-(D36-Pad2)*
X86677500Y-128270000D03*
G04 #@! TO.P,SW33,2,B*
G04 #@! TO.N,col1*
X80327500Y-130810000D03*
G04 #@! TD*
G04 #@! TO.P,SW4,1,A*
G04 #@! TO.N,Net-(D2-Pad2)*
X105727500Y-71120000D03*
G04 #@! TO.P,SW4,2,B*
G04 #@! TO.N,col2*
X99377500Y-73660000D03*
G04 #@! TD*
G04 #@! TO.P,SW24,1,A*
G04 #@! TO.N,Net-(D22-Pad2)*
X105727500Y-109220000D03*
G04 #@! TO.P,SW24,2,B*
G04 #@! TO.N,col2*
X99377500Y-111760000D03*
G04 #@! TD*
D13*
G04 #@! TO.P,SW1,A,A*
G04 #@! TO.N,padA*
X239037500Y-49900000D03*
D12*
G04 #@! TO.P,SW1,B,B*
G04 #@! TO.N,padB*
X234037500Y-49900000D03*
G04 #@! TO.P,SW1,C,C*
G04 #@! TO.N,gnd*
X236537500Y-49900000D03*
D14*
G04 #@! TO.P,SW1,MP*
G04 #@! TO.N,N/C*
X242137500Y-57400000D03*
X230937500Y-57400000D03*
D12*
G04 #@! TO.P,SW1,S1,S1*
G04 #@! TO.N,gnd*
X234037500Y-64400000D03*
G04 #@! TO.P,SW1,S2,S2*
G04 #@! TO.N,encoder_switch*
X239037500Y-64400000D03*
G04 #@! TD*
D10*
G04 #@! TO.P,SW10,1,A*
G04 #@! TO.N,Net-(D5-Pad2)*
X220027500Y-71120000D03*
G04 #@! TO.P,SW10,2,B*
G04 #@! TO.N,col5*
X213677500Y-73660000D03*
G04 #@! TD*
G04 #@! TO.P,SW8,1,A*
G04 #@! TO.N,Net-(D4-Pad2)*
X181927500Y-71120000D03*
G04 #@! TO.P,SW8,2,B*
G04 #@! TO.N,col4*
X175577500Y-73660000D03*
G04 #@! TD*
D15*
G04 #@! TO.P,U1,1,TX0/PD3*
G04 #@! TO.N,row8*
X62565750Y-49538600D03*
G04 #@! TO.P,U1,2,RX1/PD2*
G04 #@! TO.N,row7*
X65105750Y-49538600D03*
G04 #@! TO.P,U1,3,GND*
G04 #@! TO.N,unconnected-(U1-Pad3)*
X67645750Y-49538600D03*
G04 #@! TO.P,U1,4,GND*
G04 #@! TO.N,unconnected-(U1-Pad4)*
X70185750Y-49538600D03*
G04 #@! TO.P,U1,5,2/PD1*
G04 #@! TO.N,sda*
X72725750Y-49538600D03*
G04 #@! TO.P,U1,6,3/PD0*
G04 #@! TO.N,scl*
X75265750Y-49538600D03*
G04 #@! TO.P,U1,7,4/PD4*
G04 #@! TO.N,row6*
X77805750Y-49538600D03*
G04 #@! TO.P,U1,8,5/PC6*
G04 #@! TO.N,row5*
X80345750Y-49538600D03*
G04 #@! TO.P,U1,9,6/PD7*
G04 #@! TO.N,row4*
X82885750Y-49538600D03*
G04 #@! TO.P,U1,10,7/PE6*
G04 #@! TO.N,row3*
X85425750Y-49538600D03*
G04 #@! TO.P,U1,11,8/PB4*
G04 #@! TO.N,row2*
X87965750Y-49538600D03*
G04 #@! TO.P,U1,12,9/PB5*
G04 #@! TO.N,row1*
X90505750Y-49538600D03*
G04 #@! TO.P,U1,13,10/PB6*
G04 #@! TO.N,col5*
X90505750Y-64758600D03*
G04 #@! TO.P,U1,14,16/PB2*
G04 #@! TO.N,col4*
X87965750Y-64758600D03*
G04 #@! TO.P,U1,15,14/PB3*
G04 #@! TO.N,col3*
X85425750Y-64758600D03*
G04 #@! TO.P,U1,16,15/PB1*
G04 #@! TO.N,col2*
X82885750Y-64758600D03*
G04 #@! TO.P,U1,17,A0/PF7*
G04 #@! TO.N,col1*
X80345750Y-64758600D03*
G04 #@! TO.P,U1,18,A1/PF6*
G04 #@! TO.N,padB*
X77805750Y-64758600D03*
G04 #@! TO.P,U1,19,A2/PF5*
G04 #@! TO.N,padA*
X75265750Y-64758600D03*
G04 #@! TO.P,U1,20,A3/PF4*
G04 #@! TO.N,encoder_switch*
X72725750Y-64758600D03*
G04 #@! TO.P,U1,21,VCC*
G04 #@! TO.N,vcc*
X70185750Y-64758600D03*
G04 #@! TO.P,U1,22,RST*
G04 #@! TO.N,rst*
X67645750Y-64758600D03*
G04 #@! TO.P,U1,23,GND*
G04 #@! TO.N,gnd*
X65105750Y-64758600D03*
G04 #@! TO.P,U1,24,RAW*
G04 #@! TO.N,unconnected-(U1-Pad24)*
X62565750Y-64758600D03*
G04 #@! TD*
D10*
G04 #@! TO.P,SW29,1,A*
G04 #@! TO.N,Net-(D29-Pad2)*
X200977500Y-109220000D03*
G04 #@! TO.P,SW29,2,B*
G04 #@! TO.N,col4*
X194627500Y-111760000D03*
G04 #@! TD*
G04 #@! TO.P,SW39,1,A*
G04 #@! TO.N,Net-(D39-Pad2)*
X200977500Y-128270000D03*
G04 #@! TO.P,SW39,2,B*
G04 #@! TO.N,col4*
X194627500Y-130810000D03*
G04 #@! TD*
G04 #@! TO.P,SW31,1,A*
G04 #@! TO.N,Net-(D30-Pad2)*
X239077500Y-109220000D03*
G04 #@! TO.P,SW31,2,B*
G04 #@! TO.N,col5*
X232727500Y-111760000D03*
G04 #@! TD*
G04 #@! TO.P,SW27,1,A*
G04 #@! TO.N,Net-(D28-Pad2)*
X162877500Y-109220000D03*
G04 #@! TO.P,SW27,2,B*
G04 #@! TO.N,col3*
X156527500Y-111760000D03*
G04 #@! TD*
G04 #@! TO.P,SW34,1,A*
G04 #@! TO.N,Net-(D32-Pad2)*
X105727500Y-128270000D03*
G04 #@! TO.P,SW34,2,B*
G04 #@! TO.N,col2*
X99377500Y-130810000D03*
G04 #@! TD*
G04 #@! TO.P,SW15,1,A*
G04 #@! TO.N,Net-(D17-Pad2)*
X124777500Y-90170000D03*
G04 #@! TO.P,SW15,2,B*
G04 #@! TO.N,col2*
X118427500Y-92710000D03*
G04 #@! TD*
D16*
G04 #@! TO.P,D22,1,K*
G04 #@! TO.N,row5*
X101787500Y-123031250D03*
D17*
X99287500Y-123031250D03*
D18*
X100687500Y-123031250D03*
G04 #@! TO.P,D22,2,A*
G04 #@! TO.N,Net-(D22-Pad2)*
X105687500Y-123031250D03*
D16*
X104587500Y-123031250D03*
D19*
X107087500Y-123031250D03*
G04 #@! TD*
D17*
G04 #@! TO.P,D15,1,K*
G04 #@! TO.N,row3*
X213587500Y-103981250D03*
D18*
X214987500Y-103981250D03*
D16*
X216087500Y-103981250D03*
D19*
G04 #@! TO.P,D15,2,A*
G04 #@! TO.N,Net-(D15-Pad2)*
X221387500Y-103981250D03*
D18*
X219987500Y-103981250D03*
D16*
X218887500Y-103981250D03*
G04 #@! TD*
D17*
G04 #@! TO.P,D1,1,K*
G04 #@! TO.N,row1*
X61187500Y-84931250D03*
D16*
X63687500Y-84931250D03*
D18*
X62587500Y-84931250D03*
G04 #@! TO.P,D1,2,A*
G04 #@! TO.N,Net-(D1-Pad2)*
X67587500Y-84931250D03*
D16*
X66487500Y-84931250D03*
D19*
X68987500Y-84931250D03*
G04 #@! TD*
D18*
G04 #@! TO.P,D19,1,K*
G04 #@! TO.N,row4*
X195937500Y-105568750D03*
D17*
X194537500Y-105568750D03*
D16*
X197037500Y-105568750D03*
G04 #@! TO.P,D19,2,A*
G04 #@! TO.N,Net-(D19-Pad2)*
X199837500Y-105568750D03*
D18*
X200937500Y-105568750D03*
D19*
X202337500Y-105568750D03*
G04 #@! TD*
D18*
G04 #@! TO.P,D7,1,K*
G04 #@! TO.N,row2*
X119737500Y-86518750D03*
D17*
X118337500Y-86518750D03*
D16*
X120837500Y-86518750D03*
G04 #@! TO.P,D7,2,A*
G04 #@! TO.N,Net-(D7-Pad2)*
X123637500Y-86518750D03*
D18*
X124737500Y-86518750D03*
D19*
X126137500Y-86518750D03*
G04 #@! TD*
D18*
G04 #@! TO.P,D29,1,K*
G04 #@! TO.N,row6*
X195937500Y-124618750D03*
D17*
X194537500Y-124618750D03*
D16*
X197037500Y-124618750D03*
D19*
G04 #@! TO.P,D29,2,A*
G04 #@! TO.N,Net-(D29-Pad2)*
X202337500Y-124618750D03*
D16*
X199837500Y-124618750D03*
D18*
X200937500Y-124618750D03*
G04 #@! TD*
G04 #@! TO.P,D26,1,K*
G04 #@! TO.N,row6*
X81637500Y-124618750D03*
D17*
X80237500Y-124618750D03*
D16*
X82737500Y-124618750D03*
G04 #@! TO.P,D26,2,A*
G04 #@! TO.N,Net-(D26-Pad2)*
X85537500Y-124618750D03*
D18*
X86637500Y-124618750D03*
D19*
X88037500Y-124618750D03*
G04 #@! TD*
D18*
G04 #@! TO.P,D8,1,K*
G04 #@! TO.N,row2*
X157837500Y-86518750D03*
D16*
X158937500Y-86518750D03*
D17*
X156437500Y-86518750D03*
D18*
G04 #@! TO.P,D8,2,A*
G04 #@! TO.N,Net-(D8-Pad2)*
X162837500Y-86518750D03*
D16*
X161737500Y-86518750D03*
D19*
X164237500Y-86518750D03*
G04 #@! TD*
D18*
G04 #@! TO.P,D34,1,K*
G04 #@! TO.N,row7*
X176887500Y-141287500D03*
D16*
X177987500Y-141287500D03*
D17*
X175487500Y-141287500D03*
D18*
G04 #@! TO.P,D34,2,A*
G04 #@! TO.N,Net-(D34-Pad2)*
X181887500Y-141287500D03*
D16*
X180787500Y-141287500D03*
D19*
X183287500Y-141287500D03*
G04 #@! TD*
D16*
G04 #@! TO.P,D14,1,K*
G04 #@! TO.N,row3*
X177987500Y-103981250D03*
D18*
X176887500Y-103981250D03*
D17*
X175487500Y-103981250D03*
D18*
G04 #@! TO.P,D14,2,A*
G04 #@! TO.N,Net-(D14-Pad2)*
X181887500Y-103981250D03*
D19*
X183287500Y-103981250D03*
D16*
X180787500Y-103981250D03*
G04 #@! TD*
D17*
G04 #@! TO.P,D11,1,K*
G04 #@! TO.N,row3*
X61187500Y-103981250D03*
D16*
X63687500Y-103981250D03*
D18*
X62587500Y-103981250D03*
D16*
G04 #@! TO.P,D11,2,A*
G04 #@! TO.N,Net-(D11-Pad2)*
X66487500Y-103981250D03*
D19*
X68987500Y-103981250D03*
D18*
X67587500Y-103981250D03*
G04 #@! TD*
D17*
G04 #@! TO.P,D37,1,K*
G04 #@! TO.N,row8*
X118337500Y-141287500D03*
D18*
X119737500Y-141287500D03*
D16*
X120837500Y-141287500D03*
D18*
G04 #@! TO.P,D37,2,A*
G04 #@! TO.N,Net-(D37-Pad2)*
X124737500Y-141287500D03*
D19*
X126137500Y-141287500D03*
D16*
X123637500Y-141287500D03*
G04 #@! TD*
G04 #@! TO.P,D35,1,K*
G04 #@! TO.N,row7*
X216087500Y-141287500D03*
D18*
X214987500Y-141287500D03*
D17*
X213587500Y-141287500D03*
D16*
G04 #@! TO.P,D35,2,A*
G04 #@! TO.N,Net-(D35-Pad2)*
X218887500Y-141287500D03*
D18*
X219987500Y-141287500D03*
D19*
X221387500Y-141287500D03*
G04 #@! TD*
D17*
G04 #@! TO.P,D25,1,K*
G04 #@! TO.N,row5*
X213587500Y-123031250D03*
D16*
X216087500Y-123031250D03*
D18*
X214987500Y-123031250D03*
D19*
G04 #@! TO.P,D25,2,A*
G04 #@! TO.N,Net-(D25-Pad2)*
X221387500Y-123031250D03*
D16*
X218887500Y-123031250D03*
D18*
X219987500Y-123031250D03*
G04 #@! TD*
D17*
G04 #@! TO.P,D5,1,K*
G04 #@! TO.N,row1*
X214193750Y-84931250D03*
D16*
X216693750Y-84931250D03*
D18*
X215593750Y-84931250D03*
D16*
G04 #@! TO.P,D5,2,A*
G04 #@! TO.N,Net-(D5-Pad2)*
X219493750Y-84931250D03*
D19*
X221993750Y-84931250D03*
D18*
X220593750Y-84931250D03*
G04 #@! TD*
G04 #@! TO.P,D39,1,K*
G04 #@! TO.N,row8*
X196543750Y-141287500D03*
D16*
X197643750Y-141287500D03*
D17*
X195143750Y-141287500D03*
D18*
G04 #@! TO.P,D39,2,A*
G04 #@! TO.N,Net-(D39-Pad2)*
X201543750Y-141287500D03*
D19*
X202943750Y-141287500D03*
D16*
X200443750Y-141287500D03*
G04 #@! TD*
D17*
G04 #@! TO.P,D31,1,K*
G04 #@! TO.N,row7*
X61187500Y-141287500D03*
D18*
X62587500Y-141287500D03*
D16*
X63687500Y-141287500D03*
D19*
G04 #@! TO.P,D31,2,A*
G04 #@! TO.N,Net-(D31-Pad2)*
X68987500Y-141287500D03*
D18*
X67587500Y-141287500D03*
D16*
X66487500Y-141287500D03*
G04 #@! TD*
G04 #@! TO.P,D10,1,K*
G04 #@! TO.N,row2*
X235137500Y-86518750D03*
D18*
X234037500Y-86518750D03*
D17*
X232637500Y-86518750D03*
D19*
G04 #@! TO.P,D10,2,A*
G04 #@! TO.N,Net-(D10-Pad2)*
X240437500Y-86518750D03*
D18*
X239037500Y-86518750D03*
D16*
X237937500Y-86518750D03*
G04 #@! TD*
D18*
G04 #@! TO.P,D24,1,K*
G04 #@! TO.N,row5*
X176887500Y-123031250D03*
D17*
X175487500Y-123031250D03*
D16*
X177987500Y-123031250D03*
D18*
G04 #@! TO.P,D24,2,A*
G04 #@! TO.N,Net-(D24-Pad2)*
X181887500Y-123031250D03*
D19*
X183287500Y-123031250D03*
D16*
X180787500Y-123031250D03*
G04 #@! TD*
G04 #@! TO.P,D23,1,K*
G04 #@! TO.N,row5*
X144837500Y-122237500D03*
D17*
X142337500Y-122237500D03*
D18*
X143737500Y-122237500D03*
D19*
G04 #@! TO.P,D23,2,A*
G04 #@! TO.N,Net-(D23-Pad2)*
X150137500Y-122237500D03*
D16*
X147637500Y-122237500D03*
D18*
X148737500Y-122237500D03*
G04 #@! TD*
D17*
G04 #@! TO.P,D13,1,K*
G04 #@! TO.N,row3*
X137993750Y-103981250D03*
D18*
X139393750Y-103981250D03*
D16*
X140493750Y-103981250D03*
D18*
G04 #@! TO.P,D13,2,A*
G04 #@! TO.N,Net-(D13-Pad2)*
X144393750Y-103981250D03*
D16*
X143293750Y-103981250D03*
D19*
X145793750Y-103981250D03*
G04 #@! TD*
D18*
G04 #@! TO.P,D16,1,K*
G04 #@! TO.N,row4*
X81637500Y-105568750D03*
D16*
X82737500Y-105568750D03*
D17*
X80237500Y-105568750D03*
D16*
G04 #@! TO.P,D16,2,A*
G04 #@! TO.N,Net-(D16-Pad2)*
X85537500Y-105568750D03*
D18*
X86637500Y-105568750D03*
D19*
X88037500Y-105568750D03*
G04 #@! TD*
D18*
G04 #@! TO.P,D27,1,K*
G04 #@! TO.N,row6*
X119737500Y-124618750D03*
D17*
X118337500Y-124618750D03*
D16*
X120837500Y-124618750D03*
D18*
G04 #@! TO.P,D27,2,A*
G04 #@! TO.N,Net-(D27-Pad2)*
X124737500Y-124618750D03*
D16*
X123637500Y-124618750D03*
D19*
X126137500Y-124618750D03*
G04 #@! TD*
D16*
G04 #@! TO.P,D40,1,K*
G04 #@! TO.N,row8*
X235137500Y-141287500D03*
D17*
X232637500Y-141287500D03*
D18*
X234037500Y-141287500D03*
G04 #@! TO.P,D40,2,A*
G04 #@! TO.N,Net-(D40-Pad2)*
X239037500Y-141287500D03*
D16*
X237937500Y-141287500D03*
D19*
X240437500Y-141287500D03*
G04 #@! TD*
D18*
G04 #@! TO.P,D20,1,K*
G04 #@! TO.N,row4*
X234037500Y-105568750D03*
D17*
X232637500Y-105568750D03*
D16*
X235137500Y-105568750D03*
D19*
G04 #@! TO.P,D20,2,A*
G04 #@! TO.N,Net-(D20-Pad2)*
X240437500Y-105568750D03*
D18*
X239037500Y-105568750D03*
D16*
X237937500Y-105568750D03*
G04 #@! TD*
D12*
G04 #@! TO.P,SW42,1,A*
G04 #@! TO.N,vcc*
X100087500Y-54900000D03*
X93587500Y-54900000D03*
G04 #@! TO.P,SW42,2,B*
G04 #@! TO.N,rst*
X100087500Y-59400000D03*
X93587500Y-59400000D03*
G04 #@! TD*
D17*
G04 #@! TO.P,D4,1,K*
G04 #@! TO.N,row1*
X175487500Y-84931250D03*
D18*
X176887500Y-84931250D03*
D16*
X177987500Y-84931250D03*
D19*
G04 #@! TO.P,D4,2,A*
G04 #@! TO.N,Net-(D4-Pad2)*
X183287500Y-84931250D03*
D18*
X181887500Y-84931250D03*
D16*
X180787500Y-84931250D03*
G04 #@! TD*
D20*
G04 #@! TO.P,D33,1,K*
G04 #@! TO.N,row7*
X130968750Y-138231250D03*
D21*
X130968750Y-137131250D03*
D17*
X130968750Y-139631250D03*
D20*
G04 #@! TO.P,D33,2,A*
G04 #@! TO.N,Net-(D33-Pad2)*
X130968750Y-133231250D03*
D21*
X130968750Y-134331250D03*
D19*
X130968750Y-131831250D03*
G04 #@! TD*
D18*
G04 #@! TO.P,D28,1,K*
G04 #@! TO.N,row6*
X153075000Y-124618750D03*
D17*
X151675000Y-124618750D03*
D16*
X154175000Y-124618750D03*
G04 #@! TO.P,D28,2,A*
G04 #@! TO.N,Net-(D28-Pad2)*
X156975000Y-124618750D03*
D19*
X159475000Y-124618750D03*
D18*
X158075000Y-124618750D03*
G04 #@! TD*
D16*
G04 #@! TO.P,D32,1,K*
G04 #@! TO.N,row7*
X101787500Y-141287500D03*
D18*
X100687500Y-141287500D03*
D17*
X99287500Y-141287500D03*
D18*
G04 #@! TO.P,D32,2,A*
G04 #@! TO.N,Net-(D32-Pad2)*
X105687500Y-141287500D03*
D16*
X104587500Y-141287500D03*
D19*
X107087500Y-141287500D03*
G04 #@! TD*
D17*
G04 #@! TO.P,D30,1,K*
G04 #@! TO.N,row6*
X232637500Y-124618750D03*
D18*
X234037500Y-124618750D03*
D16*
X235137500Y-124618750D03*
G04 #@! TO.P,D30,2,A*
G04 #@! TO.N,Net-(D30-Pad2)*
X237937500Y-124618750D03*
D18*
X239037500Y-124618750D03*
D19*
X240437500Y-124618750D03*
G04 #@! TD*
D18*
G04 #@! TO.P,D2,1,K*
G04 #@! TO.N,row1*
X100875000Y-84931250D03*
D16*
X101975000Y-84931250D03*
D17*
X99475000Y-84931250D03*
D16*
G04 #@! TO.P,D2,2,A*
G04 #@! TO.N,Net-(D2-Pad2)*
X104775000Y-84931250D03*
D19*
X107275000Y-84931250D03*
D18*
X105875000Y-84931250D03*
G04 #@! TD*
D17*
G04 #@! TO.P,D17,1,K*
G04 #@! TO.N,row4*
X118337500Y-105568750D03*
D16*
X120837500Y-105568750D03*
D18*
X119737500Y-105568750D03*
G04 #@! TO.P,D17,2,A*
G04 #@! TO.N,Net-(D17-Pad2)*
X124737500Y-105568750D03*
D16*
X123637500Y-105568750D03*
D19*
X126137500Y-105568750D03*
G04 #@! TD*
D16*
G04 #@! TO.P,D6,1,K*
G04 #@! TO.N,row2*
X82737500Y-86518750D03*
D18*
X81637500Y-86518750D03*
D17*
X80237500Y-86518750D03*
D19*
G04 #@! TO.P,D6,2,A*
G04 #@! TO.N,Net-(D6-Pad2)*
X88037500Y-86518750D03*
D16*
X85537500Y-86518750D03*
D18*
X86637500Y-86518750D03*
G04 #@! TD*
D16*
G04 #@! TO.P,D9,1,K*
G04 #@! TO.N,row2*
X197037500Y-86518750D03*
D17*
X194537500Y-86518750D03*
D18*
X195937500Y-86518750D03*
D19*
G04 #@! TO.P,D9,2,A*
G04 #@! TO.N,Net-(D9-Pad2)*
X202337500Y-86518750D03*
D16*
X199837500Y-86518750D03*
D18*
X200937500Y-86518750D03*
G04 #@! TD*
D16*
G04 #@! TO.P,D36,1,K*
G04 #@! TO.N,row8*
X82737500Y-141287500D03*
D18*
X81637500Y-141287500D03*
D17*
X80237500Y-141287500D03*
D18*
G04 #@! TO.P,D36,2,A*
G04 #@! TO.N,Net-(D36-Pad2)*
X86637500Y-141287500D03*
D16*
X85537500Y-141287500D03*
D19*
X88037500Y-141287500D03*
G04 #@! TD*
D21*
G04 #@! TO.P,D38,1,K*
G04 #@! TO.N,row8*
X169068750Y-137131250D03*
D17*
X169068750Y-139631250D03*
D20*
X169068750Y-138231250D03*
D21*
G04 #@! TO.P,D38,2,A*
G04 #@! TO.N,Net-(D38-Pad2)*
X169068750Y-134331250D03*
D20*
X169068750Y-133231250D03*
D19*
X169068750Y-131831250D03*
G04 #@! TD*
D16*
G04 #@! TO.P,D21,1,K*
G04 #@! TO.N,row5*
X63687500Y-123031250D03*
D17*
X61187500Y-123031250D03*
D18*
X62587500Y-123031250D03*
G04 #@! TO.P,D21,2,A*
G04 #@! TO.N,Net-(D21-Pad2)*
X67587500Y-123031250D03*
D16*
X66487500Y-123031250D03*
D19*
X68987500Y-123031250D03*
G04 #@! TD*
D17*
G04 #@! TO.P,D3,1,K*
G04 #@! TO.N,row1*
X137387500Y-84931250D03*
D16*
X139887500Y-84931250D03*
D18*
X138787500Y-84931250D03*
D19*
G04 #@! TO.P,D3,2,A*
G04 #@! TO.N,Net-(D3-Pad2)*
X145187500Y-84931250D03*
D18*
X143787500Y-84931250D03*
D16*
X142687500Y-84931250D03*
G04 #@! TD*
D17*
G04 #@! TO.P,D12,1,K*
G04 #@! TO.N,row3*
X99287500Y-103981250D03*
D18*
X100687500Y-103981250D03*
D16*
X101787500Y-103981250D03*
D18*
G04 #@! TO.P,D12,2,A*
G04 #@! TO.N,Net-(D12-Pad2)*
X105687500Y-103981250D03*
D16*
X104587500Y-103981250D03*
D19*
X107087500Y-103981250D03*
G04 #@! TD*
D17*
G04 #@! TO.P,D18,1,K*
G04 #@! TO.N,row4*
X156437500Y-105568750D03*
D16*
X158937500Y-105568750D03*
D18*
X157837500Y-105568750D03*
D19*
G04 #@! TO.P,D18,2,A*
G04 #@! TO.N,Net-(D18-Pad2)*
X164237500Y-105568750D03*
D16*
X161737500Y-105568750D03*
D18*
X162837500Y-105568750D03*
G04 #@! TD*
D22*
G04 #@! TO.N,row1*
X90374521Y-84250479D03*
G04 #@! TO.N,row2*
X81756250Y-77787500D03*
X82550000Y-79292921D03*
G04 #@! TO.N,row3*
X77787500Y-83129502D03*
X77787500Y-103981250D03*
X77787500Y-79375000D03*
X77787500Y-98480498D03*
X77787500Y-102179502D03*
G04 #@! TO.N,row4*
X76200000Y-105568750D03*
G04 #@! TO.N,row5*
X73372000Y-122350479D03*
G04 #@! TO.N,Net-(D23-Pad2)*
X145788489Y-120650000D03*
X147237489Y-120650000D03*
G04 #@! TO.N,row6*
X153987500Y-122002079D03*
X165100000Y-123825000D03*
X71437500Y-124618750D03*
X165100000Y-122002079D03*
X153987500Y-123451079D03*
G04 #@! TO.N,row7*
X56356250Y-140493750D03*
X57943750Y-48418750D03*
G04 #@! TO.N,row8*
X57956298Y-49430801D03*
X57943750Y-142012000D03*
G04 #@! TO.N,sda*
X224631250Y-52387500D03*
X73025000Y-53181250D03*
G04 #@! TO.N,scl*
X73818750Y-51593750D03*
X223043750Y-51593750D03*
X223043750Y-58737500D03*
G04 #@! TO.N,vcc*
X71437500Y-54768750D03*
G04 #@! TO.N,gnd*
X236537500Y-64293750D03*
X224631250Y-57150000D03*
X236537500Y-53181250D03*
X65881250Y-57943750D03*
G04 #@! TO.N,padA*
X75406250Y-61912500D03*
X238918750Y-61912500D03*
G04 #@! TO.N,padB*
X78534739Y-62707511D03*
X234156250Y-62707511D03*
G04 #@! TO.N,encoder_switch*
X73025000Y-66675000D03*
G04 #@! TO.N,col1*
X91697500Y-92452500D03*
X72647500Y-111541250D03*
X72647500Y-92452500D03*
X72647500Y-130591250D03*
X72231250Y-73025000D03*
G04 #@! TO.N,col2*
X129797500Y-92491250D03*
X110747500Y-92491250D03*
X110747500Y-133766250D03*
X110331250Y-73818750D03*
X110747500Y-111541250D03*
X110747500Y-130552500D03*
X82550000Y-73025000D03*
G04 #@! TO.N,col3*
X84931250Y-72935500D03*
X167481250Y-73818750D03*
X148847500Y-112296250D03*
X167897500Y-92452500D03*
X148431250Y-73818750D03*
X148847500Y-92491250D03*
G04 #@! TO.N,col4*
X88900000Y-72211000D03*
X186947500Y-131385000D03*
X186531250Y-73818750D03*
X186947500Y-112335000D03*
X205997500Y-92452500D03*
X186947500Y-92491250D03*
G04 #@! TO.N,col5*
X90487500Y-70643750D03*
X225047500Y-112335000D03*
X244097500Y-92452500D03*
X225047500Y-131346250D03*
X225047500Y-92452500D03*
X224631250Y-73818750D03*
G04 #@! TO.N,rst*
X68262500Y-59531250D03*
G04 #@! TD*
D23*
G04 #@! TO.N,row1*
X178012011Y-86055761D02*
X176887500Y-84931250D01*
X138787500Y-84931250D02*
X108865300Y-84931250D01*
X90374521Y-84250479D02*
X71324521Y-84250479D01*
X146777800Y-84931250D02*
X145190300Y-86518750D01*
X108865300Y-84931250D02*
X107740789Y-86055761D01*
X107740789Y-86055761D02*
X101999511Y-86055761D01*
X193875978Y-84931250D02*
X192751467Y-86055761D01*
X63712011Y-86055761D02*
X62587500Y-84931250D01*
X140375000Y-86518750D02*
X138787500Y-84931250D01*
X71324521Y-84250479D02*
X69519239Y-86055761D01*
X69519239Y-86055761D02*
X63712011Y-86055761D01*
X215593750Y-84931250D02*
X193875978Y-84931250D01*
X101999511Y-86055761D02*
X100875000Y-84931250D01*
X192751467Y-86055761D02*
X178012011Y-86055761D01*
X100194229Y-84250479D02*
X90374521Y-84250479D01*
X176887500Y-84931250D02*
X146777800Y-84931250D01*
X145190300Y-86518750D02*
X140375000Y-86518750D01*
X100875000Y-84931250D02*
X100194229Y-84250479D01*
G04 #@! TO.N,row2*
X120862011Y-87643261D02*
X119737500Y-86518750D01*
X232912989Y-87643261D02*
X197062011Y-87643261D01*
X119737500Y-86518750D02*
X118612989Y-87643261D01*
X156712989Y-87643261D02*
X120862011Y-87643261D01*
X157837500Y-86518750D02*
X156712989Y-87643261D01*
X118612989Y-87643261D02*
X82762011Y-87643261D01*
X158962011Y-87643261D02*
X157837500Y-86518750D01*
X82762011Y-87643261D02*
X81637500Y-86518750D01*
X234037500Y-86518750D02*
X232912989Y-87643261D01*
X81756250Y-78499171D02*
X82550000Y-79292921D01*
X156706250Y-86518750D02*
X159206250Y-86518750D01*
X81756250Y-77787500D02*
X81756250Y-78499171D01*
X197062011Y-87643261D02*
X195937500Y-86518750D01*
X194812989Y-87643261D02*
X158962011Y-87643261D01*
X195937500Y-86518750D02*
X194812989Y-87643261D01*
G04 #@! TO.N,row3*
X77787500Y-103981250D02*
X70577800Y-103981250D01*
X148064821Y-103300479D02*
X146259539Y-105105761D01*
X214987500Y-103981250D02*
X184877800Y-103981250D01*
X107553289Y-105105761D02*
X101812011Y-105105761D01*
X100687500Y-103981250D02*
X77787500Y-103981250D01*
X101812011Y-105105761D02*
X100687500Y-103981250D01*
X184877800Y-103981250D02*
X183290300Y-105568750D01*
X139393750Y-103981250D02*
X138712979Y-103300479D01*
X178475000Y-105568750D02*
X176887500Y-103981250D01*
X138712979Y-103300479D02*
X109358571Y-103300479D01*
X146259539Y-105105761D02*
X140518261Y-105105761D01*
X77787500Y-79375000D02*
X77787500Y-83129502D01*
X69453289Y-105105761D02*
X63712011Y-105105761D01*
X176206729Y-103300479D02*
X148064821Y-103300479D01*
X77787500Y-98480498D02*
X77787500Y-102179502D01*
X63712011Y-105105761D02*
X62587500Y-103981250D01*
X109358571Y-103300479D02*
X107553289Y-105105761D01*
X183290300Y-105568750D02*
X178475000Y-105568750D01*
X70577800Y-103981250D02*
X69453289Y-105105761D01*
X176887500Y-103981250D02*
X176206729Y-103300479D01*
X140518261Y-105105761D02*
X139393750Y-103981250D01*
G04 #@! TO.N,row4*
X156712989Y-106693261D02*
X120862011Y-106693261D01*
X232912989Y-106693261D02*
X197062011Y-106693261D01*
X82762011Y-106693261D02*
X81637500Y-105568750D01*
X118612989Y-106693261D02*
X82762011Y-106693261D01*
X197062011Y-106693261D02*
X195937500Y-105568750D01*
X157837500Y-105568750D02*
X156712989Y-106693261D01*
X119737500Y-105568750D02*
X118612989Y-106693261D01*
X194812989Y-106693261D02*
X158962011Y-106693261D01*
X234037500Y-105568750D02*
X232912989Y-106693261D01*
X195937500Y-105568750D02*
X194812989Y-106693261D01*
X194812989Y-106693261D02*
X194537500Y-106417772D01*
X194537500Y-106417772D02*
X194537500Y-105568750D01*
X76200000Y-105568750D02*
X81637500Y-105568750D01*
X158962011Y-106693261D02*
X157837500Y-105568750D01*
X120862011Y-106693261D02*
X119737500Y-105568750D01*
G04 #@! TO.N,row5*
X73705771Y-122350479D02*
X73372000Y-122350479D01*
X63712011Y-124155761D02*
X62587500Y-123031250D01*
X151238721Y-122726579D02*
X150140300Y-123825000D01*
X101812011Y-124155761D02*
X100687500Y-123031250D01*
X109471550Y-122237500D02*
X107553289Y-124155761D01*
X176887500Y-123031250D02*
X176582829Y-122726579D01*
X214987500Y-123031250D02*
X184877800Y-123031250D01*
X73705771Y-122350479D02*
X71324521Y-122350479D01*
X107553289Y-124155761D02*
X101812011Y-124155761D01*
X184877800Y-123031250D02*
X183753289Y-124155761D01*
X71324521Y-122350479D02*
X69519239Y-124155761D01*
X145325000Y-123825000D02*
X143737500Y-122237500D01*
X178012011Y-124155761D02*
X176887500Y-123031250D01*
X176582829Y-122726579D02*
X151238721Y-122726579D01*
X150140300Y-123825000D02*
X145325000Y-123825000D01*
X69519239Y-124155761D02*
X63712011Y-124155761D01*
X183753289Y-124155761D02*
X178012011Y-124155761D01*
X143737500Y-122237500D02*
X109471550Y-122237500D01*
X100006729Y-122350479D02*
X73705771Y-122350479D01*
X100687500Y-123031250D02*
X100006729Y-122350479D01*
G04 #@! TO.N,Net-(D23-Pad2)*
X145788489Y-120650000D02*
X147237489Y-120650000D01*
G04 #@! TO.N,row6*
X89627800Y-124618750D02*
X88503289Y-123494239D01*
X165100000Y-122002079D02*
X153987500Y-122002079D01*
X119737500Y-124618750D02*
X89627800Y-124618750D01*
X71437500Y-124618750D02*
X72231250Y-125412500D01*
X80168750Y-124618750D02*
X81637500Y-124618750D01*
X153987500Y-123451079D02*
X153987500Y-123706250D01*
X153075000Y-124618750D02*
X141785704Y-124618750D01*
X232912989Y-125743261D02*
X197062011Y-125743261D01*
X165893750Y-124618750D02*
X165100000Y-123825000D01*
X88503289Y-123494239D02*
X82762011Y-123494239D01*
X72231250Y-125412500D02*
X79375000Y-125412500D01*
X121629671Y-122726579D02*
X119737500Y-124618750D01*
X153987500Y-123706250D02*
X153075000Y-124618750D01*
X82762011Y-123494239D02*
X81637500Y-124618750D01*
X197062011Y-125743261D02*
X195937500Y-124618750D01*
X195937500Y-124618750D02*
X165893750Y-124618750D01*
X141785704Y-124618750D02*
X139893533Y-122726579D01*
X139893533Y-122726579D02*
X121629671Y-122726579D01*
X234037500Y-124618750D02*
X232912989Y-125743261D01*
X79375000Y-125412500D02*
X80168750Y-124618750D01*
G04 #@! TO.N,row7*
X57150000Y-141287500D02*
X56356250Y-140493750D01*
X61187500Y-141287500D02*
X57150000Y-141287500D01*
X63985900Y-48418750D02*
X65105750Y-49538600D01*
X57943750Y-48418750D02*
X63985900Y-48418750D01*
G04 #@! TO.N,Net-(D33-Pad2)*
X133548750Y-133231250D02*
X130968750Y-133231250D01*
X138747500Y-138430000D02*
X133548750Y-133231250D01*
X148272500Y-138430000D02*
X138747500Y-138430000D01*
G04 #@! TO.N,row8*
X232912989Y-142412011D02*
X197668261Y-142412011D01*
X80512989Y-142412011D02*
X58343761Y-142412011D01*
X80237500Y-141287500D02*
X79112989Y-142412011D01*
X119737500Y-141287500D02*
X118612989Y-142412011D01*
X57956298Y-49430801D02*
X58064097Y-49538600D01*
X81637500Y-141287500D02*
X80512989Y-142412011D01*
X173249511Y-142412011D02*
X169068750Y-138231250D01*
X195419239Y-142412011D02*
X173249511Y-142412011D01*
X82762011Y-142412011D02*
X81637500Y-141287500D01*
X196543750Y-141287500D02*
X195419239Y-142412011D01*
X169068750Y-138231250D02*
X164887989Y-142412011D01*
X197668261Y-142412011D02*
X196543750Y-141287500D01*
X58343761Y-142412011D02*
X57943750Y-142012000D01*
X118612989Y-142412011D02*
X82762011Y-142412011D01*
X120862011Y-142412011D02*
X119737500Y-141287500D01*
X164887989Y-142412011D02*
X120862011Y-142412011D01*
X234037500Y-141287500D02*
X232912989Y-142412011D01*
X58064097Y-49538600D02*
X62565750Y-49538600D01*
G04 #@! TO.N,sda*
X73025000Y-53181250D02*
X73630761Y-52575489D01*
X73630761Y-52575489D02*
X224443261Y-52575489D01*
X224443261Y-52575489D02*
X224631250Y-52387500D01*
G04 #@! TO.N,scl*
X223361250Y-58420000D02*
X226218750Y-58420000D01*
X73818750Y-51593750D02*
X223043750Y-51593750D01*
X223043750Y-58737500D02*
X223361250Y-58420000D01*
G04 #@! TO.N,vcc*
X100087500Y-54900000D02*
X225238750Y-54900000D01*
X95837500Y-54900000D02*
X96837500Y-53900000D01*
X96837500Y-53900000D02*
X99087500Y-53900000D01*
X71437500Y-54768750D02*
X71568750Y-54900000D01*
X225238750Y-54900000D02*
X226218750Y-55880000D01*
X71568750Y-54900000D02*
X93587500Y-54900000D01*
X99087500Y-53900000D02*
X100087500Y-54900000D01*
X93587500Y-54900000D02*
X95837500Y-54900000D01*
G04 #@! TO.N,gnd*
X226218750Y-53340000D02*
X236378750Y-53340000D01*
X66428011Y-57396989D02*
X224384261Y-57396989D01*
X236537500Y-64293750D02*
X236431250Y-64400000D01*
X65881250Y-57943750D02*
X66428011Y-57396989D01*
X224384261Y-57396989D02*
X224631250Y-57150000D01*
X236431250Y-64400000D02*
X234037500Y-64400000D01*
X236378750Y-53340000D02*
X236537500Y-53181250D01*
G04 #@! TO.N,padA*
X238848239Y-61983011D02*
X238918750Y-61912500D01*
X75476761Y-61983011D02*
X238848239Y-61983011D01*
X75406250Y-61912500D02*
X75476761Y-61983011D01*
G04 #@! TO.N,padB*
X78534739Y-62707511D02*
X234156250Y-62707511D01*
G04 #@! TO.N,encoder_switch*
X73705771Y-67355771D02*
X236081729Y-67355771D01*
X73025000Y-66675000D02*
X73705771Y-67355771D01*
X236081729Y-67355771D02*
X239037500Y-64400000D01*
G04 #@! TO.N,col1*
X61277500Y-92710000D02*
X72390000Y-92710000D01*
X72905000Y-92710000D02*
X72647500Y-92452500D01*
X80327500Y-92710000D02*
X72905000Y-92710000D01*
X61277500Y-130810000D02*
X72428750Y-130810000D01*
X69360508Y-73660000D02*
X69995508Y-73025000D01*
X69995508Y-73025000D02*
X72231250Y-73025000D01*
X72428750Y-111760000D02*
X72647500Y-111541250D01*
X72866250Y-130810000D02*
X72647500Y-130591250D01*
X80327500Y-73660000D02*
X72866250Y-73660000D01*
X72390000Y-92710000D02*
X72647500Y-92452500D01*
X72866250Y-73660000D02*
X72231250Y-73025000D01*
X61277500Y-73660000D02*
X69360508Y-73660000D01*
X91440000Y-92710000D02*
X91697500Y-92452500D01*
X80327500Y-130810000D02*
X72866250Y-130810000D01*
X72866250Y-111760000D02*
X72647500Y-111541250D01*
X72428750Y-130810000D02*
X72647500Y-130591250D01*
X61277500Y-111760000D02*
X72428750Y-111760000D01*
X80327500Y-92710000D02*
X91440000Y-92710000D01*
X80327500Y-111760000D02*
X72866250Y-111760000D01*
G04 #@! TO.N,col2*
X99377500Y-130810000D02*
X110490000Y-130810000D01*
X129578750Y-92710000D02*
X129797500Y-92491250D01*
X110747500Y-92491250D02*
X110966250Y-92710000D01*
X118427500Y-73660000D02*
X110490000Y-73660000D01*
X110490000Y-73660000D02*
X110331250Y-73818750D01*
X112871250Y-135890000D02*
X110747500Y-133766250D01*
X110490000Y-130810000D02*
X110747500Y-130552500D01*
X126047500Y-135890000D02*
X112871250Y-135890000D01*
X99377500Y-73660000D02*
X83185000Y-73660000D01*
X110528750Y-111760000D02*
X110747500Y-111541250D01*
X99377500Y-92710000D02*
X110528750Y-92710000D01*
X110966250Y-92710000D02*
X118427500Y-92710000D01*
X99377500Y-111760000D02*
X110528750Y-111760000D01*
X118427500Y-92710000D02*
X129578750Y-92710000D01*
X83185000Y-73660000D02*
X82550000Y-73025000D01*
X110966250Y-111760000D02*
X110747500Y-111541250D01*
X110528750Y-92710000D02*
X110747500Y-92491250D01*
X110172500Y-73660000D02*
X110331250Y-73818750D01*
X118427500Y-111760000D02*
X110966250Y-111760000D01*
X99377500Y-73660000D02*
X110172500Y-73660000D01*
G04 #@! TO.N,col3*
X137477500Y-111760000D02*
X148311250Y-111760000D01*
X125253750Y-73660000D02*
X137477500Y-73660000D01*
X148590000Y-73660000D02*
X148431250Y-73818750D01*
X148628750Y-92710000D02*
X148847500Y-92491250D01*
X167640000Y-92710000D02*
X167897500Y-92452500D01*
X120650000Y-73807125D02*
X125106625Y-73807125D01*
X148847500Y-92491250D02*
X149066250Y-92710000D01*
X98769636Y-72192489D02*
X102169509Y-72192489D01*
X84931250Y-72935500D02*
X98026625Y-72935500D01*
X148311250Y-111760000D02*
X148847500Y-112296250D01*
X102169509Y-72192489D02*
X103071259Y-73094239D01*
X145097500Y-135890000D02*
X154622500Y-135890000D01*
X117819636Y-72192489D02*
X119035364Y-72192489D01*
X137477500Y-92710000D02*
X148628750Y-92710000D01*
X137477500Y-73660000D02*
X148272500Y-73660000D01*
X103071259Y-73094239D02*
X116917886Y-73094239D01*
X148272500Y-73660000D02*
X148431250Y-73818750D01*
X116917886Y-73094239D02*
X117819636Y-72192489D01*
X119035364Y-72192489D02*
X120650000Y-73807125D01*
X125242125Y-73660000D02*
X125253750Y-73660000D01*
X149383750Y-111760000D02*
X148847500Y-112296250D01*
X149066250Y-92710000D02*
X156527500Y-92710000D01*
X156527500Y-111760000D02*
X149383750Y-111760000D01*
X156527500Y-92710000D02*
X167640000Y-92710000D01*
X156527500Y-73660000D02*
X167322500Y-73660000D01*
X167322500Y-73660000D02*
X167481250Y-73818750D01*
X98026625Y-72935500D02*
X98769636Y-72192489D01*
X125106625Y-73807125D02*
X125253750Y-73660000D01*
X154622500Y-135890000D02*
X164147500Y-135890000D01*
X156527500Y-73660000D02*
X148590000Y-73660000D01*
G04 #@! TO.N,col4*
X205740000Y-92710000D02*
X205997500Y-92452500D01*
X175577500Y-111760000D02*
X186372500Y-111760000D01*
X120259655Y-72781062D02*
X136281063Y-72781062D01*
X119221562Y-71742969D02*
X120259655Y-72781062D01*
X155919636Y-72192489D02*
X161700759Y-72192489D01*
X186728750Y-92710000D02*
X186947500Y-92491250D01*
X136869636Y-72192489D02*
X142042489Y-72192489D01*
X187522500Y-130810000D02*
X186947500Y-131385000D01*
X89368031Y-71742969D02*
X103873250Y-71742969D01*
X175011739Y-73094239D02*
X175577500Y-73660000D01*
X186947500Y-92491250D02*
X187166250Y-92710000D01*
X175577500Y-130810000D02*
X186372500Y-130810000D01*
X194627500Y-92710000D02*
X205740000Y-92710000D01*
X194627500Y-111760000D02*
X187522500Y-111760000D01*
X142042489Y-72192489D02*
X142875000Y-73025000D01*
X186372500Y-130810000D02*
X186947500Y-131385000D01*
X162602509Y-73094239D02*
X175011739Y-73094239D01*
X186372500Y-111760000D02*
X186947500Y-112335000D01*
X186372500Y-73660000D02*
X186531250Y-73818750D01*
X187166250Y-92710000D02*
X194627500Y-92710000D01*
X103873250Y-71742969D02*
X104775000Y-72644719D01*
X175577500Y-73660000D02*
X186372500Y-73660000D01*
X175577500Y-92710000D02*
X186728750Y-92710000D01*
X116731688Y-72644719D02*
X117633439Y-71742969D01*
X136281063Y-72781062D02*
X136869636Y-72192489D01*
X104775000Y-72644719D02*
X116731688Y-72644719D01*
X155087125Y-73025000D02*
X155919636Y-72192489D01*
X142875000Y-73025000D02*
X155087125Y-73025000D01*
X161700759Y-72192489D02*
X162602509Y-73094239D01*
X194627500Y-130810000D02*
X187522500Y-130810000D01*
X88900000Y-72211000D02*
X89368031Y-71742969D01*
X117633439Y-71742969D02*
X119221562Y-71742969D01*
X187522500Y-111760000D02*
X186947500Y-112335000D01*
G04 #@! TO.N,col5*
X224790000Y-73660000D02*
X224631250Y-73818750D01*
X225583750Y-130810000D02*
X225047500Y-131346250D01*
X213677500Y-92710000D02*
X224790000Y-92710000D01*
X209669989Y-69652489D02*
X213677500Y-73660000D01*
X225622500Y-111760000D02*
X225047500Y-112335000D01*
X225305000Y-92710000D02*
X232727500Y-92710000D01*
X224790000Y-92710000D02*
X225047500Y-92452500D01*
X232727500Y-111760000D02*
X225622500Y-111760000D01*
X225047500Y-92452500D02*
X225305000Y-92710000D01*
X213677500Y-73660000D02*
X224472500Y-73660000D01*
X224472500Y-73660000D02*
X224631250Y-73818750D01*
X90487500Y-70643750D02*
X91478761Y-69652489D01*
X91478761Y-69652489D02*
X209669989Y-69652489D01*
X232727500Y-130810000D02*
X225583750Y-130810000D01*
X232727500Y-92710000D02*
X243840000Y-92710000D01*
X243840000Y-92710000D02*
X244097500Y-92452500D01*
X225583750Y-73660000D02*
X224790000Y-73660000D01*
X232727500Y-73660000D02*
X225583750Y-73660000D01*
X224511250Y-130810000D02*
X225047500Y-131346250D01*
X213677500Y-130810000D02*
X224511250Y-130810000D01*
X213677500Y-111760000D02*
X224472500Y-111760000D01*
X224472500Y-111760000D02*
X225047500Y-112335000D01*
G04 #@! TO.N,rst*
X99087500Y-60400000D02*
X100087500Y-59400000D01*
X95837500Y-59400000D02*
X96837500Y-60400000D01*
X93587500Y-59400000D02*
X95837500Y-59400000D01*
X68393750Y-59400000D02*
X93587500Y-59400000D01*
X68262500Y-59531250D02*
X68393750Y-59400000D01*
X96837500Y-60400000D02*
X99087500Y-60400000D01*
G04 #@! TD*
M02*
