G04 #@! TF.GenerationSoftware,KiCad,Pcbnew,(6.0.4-0)*
G04 #@! TF.CreationDate,2022-05-09T18:43:37-05:00*
G04 #@! TF.ProjectId,freaku4X,66726561-6b75-4345-982e-6b696361645f,rev?*
G04 #@! TF.SameCoordinates,Original*
G04 #@! TF.FileFunction,Soldermask,Bot*
G04 #@! TF.FilePolarity,Negative*
%FSLAX46Y46*%
G04 Gerber Fmt 4.6, Leading zero omitted, Abs format (unit mm)*
G04 Created by KiCad (PCBNEW (6.0.4-0)) date 2022-05-09 18:43:37*
%MOMM*%
%LPD*%
G01*
G04 APERTURE LIST*
%ADD10C,2.200000*%
%ADD11C,3.000000*%
%ADD12C,1.701800*%
%ADD13C,3.987800*%
%ADD14C,2.286000*%
%ADD15R,2.550000X2.500000*%
%ADD16C,1.397000*%
%ADD17C,2.000000*%
%ADD18C,3.048000*%
%ADD19R,2.000000X2.000000*%
%ADD20R,2.000000X3.200000*%
%ADD21C,1.524000*%
%ADD22R,1.600000X1.600000*%
%ADD23R,1.600000X1.200000*%
%ADD24C,1.600000*%
%ADD25R,1.200000X1.600000*%
G04 APERTURE END LIST*
D10*
G04 #@! TO.C,H8*
X227012500Y-123825000D03*
G04 #@! TD*
D11*
G04 #@! TO.C,SW13*
X87947500Y-97790000D03*
D12*
X89217500Y-95250000D03*
D11*
X81597500Y-100330000D03*
D12*
X79057500Y-95250000D03*
D13*
X84137500Y-95250000D03*
D14*
X86677500Y-90170000D03*
D15*
X77847500Y-100330000D03*
X91697500Y-97790000D03*
D14*
X80327500Y-92710000D03*
G04 #@! TD*
D10*
G04 #@! TO.C,H2*
X169862500Y-50006250D03*
G04 #@! TD*
D11*
G04 #@! TO.C,SW16*
X145097500Y-97790000D03*
D12*
X136207500Y-95250000D03*
D11*
X138747500Y-100330000D03*
D12*
X146367500Y-95250000D03*
D13*
X141287500Y-95250000D03*
D14*
X143827500Y-90170000D03*
D15*
X134997500Y-100330000D03*
X148847500Y-97790000D03*
D14*
X137477500Y-92710000D03*
G04 #@! TD*
D12*
G04 #@! TO.C,SW9*
X203517500Y-76200000D03*
X193357500Y-76200000D03*
D11*
X195897500Y-81280000D03*
X202247500Y-78740000D03*
D13*
X198437500Y-76200000D03*
D15*
X192147500Y-81280000D03*
D14*
X200977500Y-71120000D03*
D15*
X205997500Y-78740000D03*
D14*
X194627500Y-73660000D03*
G04 #@! TD*
D12*
G04 #@! TO.C,SW40*
X212407500Y-133350000D03*
D13*
X217487500Y-133350000D03*
D11*
X221297500Y-135890000D03*
D12*
X222567500Y-133350000D03*
D11*
X214947500Y-138430000D03*
D14*
X220027500Y-128270000D03*
D15*
X211197500Y-138430000D03*
D14*
X213677500Y-130810000D03*
D15*
X225047500Y-135890000D03*
G04 #@! TD*
D12*
G04 #@! TO.C,SW41*
X241617500Y-133350000D03*
D11*
X240347500Y-135890000D03*
X233997500Y-138430000D03*
D12*
X231457500Y-133350000D03*
D13*
X236537500Y-133350000D03*
D15*
X230247500Y-138430000D03*
D14*
X239077500Y-128270000D03*
D15*
X244097500Y-135890000D03*
D14*
X232727500Y-130810000D03*
G04 #@! TD*
D10*
G04 #@! TO.C,H6*
X169862500Y-104775000D03*
G04 #@! TD*
G04 #@! TO.C,H1*
X188912500Y-65881250D03*
G04 #@! TD*
G04 #@! TO.C,H3*
X74612500Y-85725000D03*
G04 #@! TD*
D12*
G04 #@! TO.C,SW21*
X231457500Y-95250000D03*
X241617500Y-95250000D03*
D11*
X233997500Y-100330000D03*
X240347500Y-97790000D03*
D13*
X236537500Y-95250000D03*
D14*
X239077500Y-90170000D03*
D15*
X230247500Y-100330000D03*
X244097500Y-97790000D03*
D14*
X232727500Y-92710000D03*
G04 #@! TD*
D11*
G04 #@! TO.C,SW14*
X106997500Y-97790000D03*
D13*
X103187500Y-95250000D03*
D12*
X98107500Y-95250000D03*
D11*
X100647500Y-100330000D03*
D12*
X108267500Y-95250000D03*
D14*
X105727500Y-90170000D03*
D15*
X96897500Y-100330000D03*
D14*
X99377500Y-92710000D03*
D15*
X110747500Y-97790000D03*
G04 #@! TD*
D11*
G04 #@! TO.C,SW37*
X156527500Y-130810000D03*
X162877500Y-128270000D03*
D12*
X165417500Y-133350000D03*
X155257500Y-133350000D03*
D13*
X160337500Y-133350000D03*
D15*
X166627500Y-128270000D03*
D14*
X157797500Y-138430000D03*
D15*
X152777500Y-130810000D03*
D14*
X164147500Y-135890000D03*
G04 #@! TD*
D11*
G04 #@! TO.C,SW28*
X176847500Y-119380000D03*
D13*
X179387500Y-114300000D03*
D11*
X183197500Y-116840000D03*
D12*
X174307500Y-114300000D03*
X184467500Y-114300000D03*
D15*
X173097500Y-119380000D03*
D14*
X181927500Y-109220000D03*
X175577500Y-111760000D03*
D15*
X186947500Y-116840000D03*
G04 #@! TD*
D12*
G04 #@! TO.C,SW23*
X89217500Y-114300000D03*
D11*
X81597500Y-119380000D03*
X87947500Y-116840000D03*
D12*
X79057500Y-114300000D03*
D13*
X84137500Y-114300000D03*
D15*
X77847500Y-119380000D03*
D14*
X86677500Y-109220000D03*
X80327500Y-111760000D03*
D15*
X91697500Y-116840000D03*
G04 #@! TD*
D11*
G04 #@! TO.C,SW6*
X145097500Y-78740000D03*
D13*
X141287500Y-76200000D03*
D12*
X146367500Y-76200000D03*
X136207500Y-76200000D03*
D11*
X138747500Y-81280000D03*
D14*
X143827500Y-71120000D03*
D15*
X134997500Y-81280000D03*
D14*
X137477500Y-73660000D03*
D15*
X148847500Y-78740000D03*
G04 #@! TD*
D16*
G04 #@! TO.C,OL1*
X226218750Y-60960000D03*
X226218750Y-58420000D03*
X226218750Y-55880000D03*
X226218750Y-53340000D03*
G04 #@! TD*
D10*
G04 #@! TO.C,H4*
X227012500Y-85725000D03*
G04 #@! TD*
D12*
G04 #@! TO.C,SW30*
X212407500Y-114300000D03*
X222567500Y-114300000D03*
D11*
X214947500Y-119380000D03*
D13*
X217487500Y-114300000D03*
D11*
X221297500Y-116840000D03*
D15*
X211197500Y-119380000D03*
D14*
X220027500Y-109220000D03*
D15*
X225047500Y-116840000D03*
D14*
X213677500Y-111760000D03*
G04 #@! TD*
D11*
G04 #@! TO.C,SW22*
X62547500Y-119380000D03*
X68897500Y-116840000D03*
D12*
X70167500Y-114300000D03*
D13*
X65087500Y-114300000D03*
D12*
X60007500Y-114300000D03*
D14*
X67627500Y-109220000D03*
D15*
X58797500Y-119380000D03*
D14*
X61277500Y-111760000D03*
D15*
X72647500Y-116840000D03*
G04 #@! TD*
D11*
G04 #@! TO.C,SW11*
X233997500Y-81280000D03*
D13*
X236537500Y-76200000D03*
D12*
X241617500Y-76200000D03*
X231457500Y-76200000D03*
D11*
X240347500Y-78740000D03*
D14*
X239077500Y-71120000D03*
D15*
X230247500Y-81280000D03*
X244097500Y-78740000D03*
D14*
X232727500Y-73660000D03*
G04 #@! TD*
D12*
G04 #@! TO.C,SW32*
X60007500Y-133350000D03*
D13*
X65087500Y-133350000D03*
D11*
X68897500Y-135890000D03*
X62547500Y-138430000D03*
D12*
X70167500Y-133350000D03*
D15*
X58797500Y-138430000D03*
D14*
X67627500Y-128270000D03*
D15*
X72647500Y-135890000D03*
D14*
X61277500Y-130810000D03*
G04 #@! TD*
D11*
G04 #@! TO.C,SW7*
X164147500Y-78740000D03*
D13*
X160337500Y-76200000D03*
D12*
X165417500Y-76200000D03*
X155257500Y-76200000D03*
D11*
X157797500Y-81280000D03*
D15*
X154047500Y-81280000D03*
D14*
X162877500Y-71120000D03*
X156527500Y-73660000D03*
D15*
X167897500Y-78740000D03*
G04 #@! TD*
D13*
G04 #@! TO.C,SW38*
X179387500Y-133350000D03*
D11*
X183197500Y-135890000D03*
X176847500Y-138430000D03*
D12*
X184467500Y-133350000D03*
X174307500Y-133350000D03*
D14*
X181927500Y-128270000D03*
D15*
X173097500Y-138430000D03*
X186947500Y-135890000D03*
D14*
X175577500Y-130810000D03*
G04 #@! TD*
D13*
G04 #@! TO.C,SW36*
X141287500Y-133350000D03*
D11*
X137477500Y-130810000D03*
X143827500Y-128270000D03*
D12*
X136207500Y-133350000D03*
X146367500Y-133350000D03*
D14*
X138747500Y-138430000D03*
D15*
X147577500Y-128270000D03*
X133727500Y-130810000D03*
D14*
X145097500Y-135890000D03*
G04 #@! TD*
D10*
G04 #@! TO.C,H7*
X74612500Y-123825000D03*
G04 #@! TD*
D11*
G04 #@! TO.C,SW35*
X118427500Y-130810000D03*
D12*
X117157500Y-133350000D03*
D11*
X124777500Y-128270000D03*
D12*
X127317500Y-133350000D03*
D13*
X122237500Y-133350000D03*
D14*
X119697500Y-138430000D03*
D15*
X128527500Y-128270000D03*
X114677500Y-130810000D03*
D14*
X126047500Y-135890000D03*
G04 #@! TD*
D13*
G04 #@! TO.C,SW26*
X141287500Y-114300000D03*
D11*
X145097500Y-116840000D03*
X138747500Y-119380000D03*
D12*
X146367500Y-114300000D03*
X136207500Y-114300000D03*
D14*
X143827500Y-109220000D03*
D15*
X134997500Y-119380000D03*
D14*
X137477500Y-111760000D03*
D15*
X148847500Y-116840000D03*
G04 #@! TD*
D12*
G04 #@! TO.C,SW25*
X117157500Y-114300000D03*
D11*
X119697500Y-119380000D03*
X126047500Y-116840000D03*
D13*
X122237500Y-114300000D03*
D12*
X127317500Y-114300000D03*
D15*
X115947500Y-119380000D03*
D14*
X124777500Y-109220000D03*
X118427500Y-111760000D03*
D15*
X129797500Y-116840000D03*
G04 #@! TD*
D10*
G04 #@! TO.C,H5*
X131762500Y-104775000D03*
G04 #@! TD*
D11*
G04 #@! TO.C,SW18*
X176847500Y-100330000D03*
D12*
X174307500Y-95250000D03*
D13*
X179387500Y-95250000D03*
D12*
X184467500Y-95250000D03*
D11*
X183197500Y-97790000D03*
D14*
X181927500Y-90170000D03*
D15*
X173097500Y-100330000D03*
X186947500Y-97790000D03*
D14*
X175577500Y-92710000D03*
G04 #@! TD*
D17*
G04 #@! TO.C,SW43*
X96837500Y-53900000D03*
X96837500Y-60400000D03*
G04 #@! TD*
D12*
G04 #@! TO.C,SW20*
X212407500Y-95250000D03*
X222567500Y-95250000D03*
D13*
X217487500Y-95250000D03*
D11*
X221297500Y-97790000D03*
X214947500Y-100330000D03*
D15*
X211197500Y-100330000D03*
D14*
X220027500Y-90170000D03*
X213677500Y-92710000D03*
D15*
X225047500Y-97790000D03*
G04 #@! TD*
D11*
G04 #@! TO.C,SW19*
X202247500Y-97790000D03*
D12*
X203517500Y-95250000D03*
D13*
X198437500Y-95250000D03*
D11*
X195897500Y-100330000D03*
D12*
X193357500Y-95250000D03*
D14*
X200977500Y-90170000D03*
D15*
X192147500Y-100330000D03*
X205997500Y-97790000D03*
D14*
X194627500Y-92710000D03*
G04 #@! TD*
D18*
G04 #@! TO.C,REF\u002A\u002A*
X162712500Y-140335000D03*
D13*
X162712500Y-125095000D03*
D18*
X138912500Y-140335000D03*
D13*
X138912500Y-125095000D03*
G04 #@! TD*
D11*
G04 #@! TO.C,SW17*
X157797500Y-100330000D03*
D13*
X160337500Y-95250000D03*
D12*
X165417500Y-95250000D03*
D11*
X164147500Y-97790000D03*
D12*
X155257500Y-95250000D03*
D14*
X162877500Y-90170000D03*
D15*
X154047500Y-100330000D03*
D14*
X156527500Y-92710000D03*
D15*
X167897500Y-97790000D03*
G04 #@! TD*
D11*
G04 #@! TO.C,SW12*
X68897500Y-97790000D03*
D13*
X65087500Y-95250000D03*
D12*
X60007500Y-95250000D03*
X70167500Y-95250000D03*
D11*
X62547500Y-100330000D03*
D15*
X58797500Y-100330000D03*
D14*
X67627500Y-90170000D03*
X61277500Y-92710000D03*
D15*
X72647500Y-97790000D03*
G04 #@! TD*
D11*
G04 #@! TO.C,SW3*
X87947500Y-78740000D03*
D13*
X84137500Y-76200000D03*
D12*
X89217500Y-76200000D03*
D11*
X81597500Y-81280000D03*
D12*
X79057500Y-76200000D03*
D15*
X77847500Y-81280000D03*
D14*
X86677500Y-71120000D03*
D15*
X91697500Y-78740000D03*
D14*
X80327500Y-73660000D03*
G04 #@! TD*
D12*
G04 #@! TO.C,SW2*
X60007500Y-76200000D03*
D11*
X62547500Y-81280000D03*
D13*
X65087500Y-76200000D03*
D12*
X70167500Y-76200000D03*
D11*
X68897500Y-78740000D03*
D15*
X58797500Y-81280000D03*
D14*
X67627500Y-71120000D03*
X61277500Y-73660000D03*
D15*
X72647500Y-78740000D03*
G04 #@! TD*
D13*
G04 #@! TO.C,SW5*
X122237500Y-76200000D03*
D12*
X117157500Y-76200000D03*
D11*
X119697500Y-81280000D03*
D12*
X127317500Y-76200000D03*
D11*
X126047500Y-78740000D03*
D14*
X124777500Y-71120000D03*
D15*
X115947500Y-81280000D03*
D14*
X118427500Y-73660000D03*
D15*
X129797500Y-78740000D03*
G04 #@! TD*
D12*
G04 #@! TO.C,SW44*
X145732500Y-133350000D03*
D13*
X150812500Y-133350000D03*
D12*
X155892500Y-133350000D03*
D14*
X148272500Y-138430000D03*
X154622500Y-135890000D03*
G04 #@! TD*
D12*
G04 #@! TO.C,SW33*
X79057500Y-133350000D03*
D11*
X87947500Y-135890000D03*
D13*
X84137500Y-133350000D03*
D11*
X81597500Y-138430000D03*
D12*
X89217500Y-133350000D03*
D14*
X86677500Y-128270000D03*
D15*
X77847500Y-138430000D03*
D14*
X80327500Y-130810000D03*
D15*
X91697500Y-135890000D03*
G04 #@! TD*
D10*
G04 #@! TO.C,H2*
X131762500Y-50006250D03*
G04 #@! TD*
D12*
G04 #@! TO.C,SW4*
X98107500Y-76200000D03*
X108267500Y-76200000D03*
D13*
X103187500Y-76200000D03*
D11*
X106997500Y-78740000D03*
X100647500Y-81280000D03*
D14*
X105727500Y-71120000D03*
D15*
X96897500Y-81280000D03*
D14*
X99377500Y-73660000D03*
D15*
X110747500Y-78740000D03*
G04 #@! TD*
D11*
G04 #@! TO.C,SW24*
X106997500Y-116840000D03*
D12*
X98107500Y-114300000D03*
X108267500Y-114300000D03*
D11*
X100647500Y-119380000D03*
D13*
X103187500Y-114300000D03*
D15*
X96897500Y-119380000D03*
D14*
X105727500Y-109220000D03*
X99377500Y-111760000D03*
D15*
X110747500Y-116840000D03*
G04 #@! TD*
D19*
G04 #@! TO.C,SW1*
X239037500Y-49900000D03*
D17*
X234037500Y-49900000D03*
X236537500Y-49900000D03*
D20*
X242137500Y-57400000D03*
X230937500Y-57400000D03*
D17*
X234037500Y-64400000D03*
X239037500Y-64400000D03*
G04 #@! TD*
D12*
G04 #@! TO.C,SW10*
X222567500Y-76200000D03*
D11*
X214947500Y-81280000D03*
D12*
X212407500Y-76200000D03*
D13*
X217487500Y-76200000D03*
D11*
X221297500Y-78740000D03*
D15*
X211197500Y-81280000D03*
D14*
X220027500Y-71120000D03*
D15*
X225047500Y-78740000D03*
D14*
X213677500Y-73660000D03*
G04 #@! TD*
D12*
G04 #@! TO.C,SW8*
X184467500Y-76200000D03*
D13*
X179387500Y-76200000D03*
D12*
X174307500Y-76200000D03*
D11*
X183197500Y-78740000D03*
X176847500Y-81280000D03*
D15*
X173097500Y-81280000D03*
D14*
X181927500Y-71120000D03*
D15*
X186947500Y-78740000D03*
D14*
X175577500Y-73660000D03*
G04 #@! TD*
D21*
G04 #@! TO.C,U1*
X62565750Y-49538600D03*
X65105750Y-49538600D03*
X67645750Y-49538600D03*
X70185750Y-49538600D03*
X72725750Y-49538600D03*
X75265750Y-49538600D03*
X77805750Y-49538600D03*
X80345750Y-49538600D03*
X82885750Y-49538600D03*
X85425750Y-49538600D03*
X87965750Y-49538600D03*
X90505750Y-49538600D03*
X90505750Y-64758600D03*
X87965750Y-64758600D03*
X85425750Y-64758600D03*
X82885750Y-64758600D03*
X80345750Y-64758600D03*
X77805750Y-64758600D03*
X75265750Y-64758600D03*
X72725750Y-64758600D03*
X70185750Y-64758600D03*
X67645750Y-64758600D03*
X65105750Y-64758600D03*
X62565750Y-64758600D03*
G04 #@! TD*
D11*
G04 #@! TO.C,SW29*
X195897500Y-119380000D03*
X202247500Y-116840000D03*
D13*
X198437500Y-114300000D03*
D12*
X203517500Y-114300000D03*
X193357500Y-114300000D03*
D15*
X192147500Y-119380000D03*
D14*
X200977500Y-109220000D03*
X194627500Y-111760000D03*
D15*
X205997500Y-116840000D03*
G04 #@! TD*
D11*
G04 #@! TO.C,SW39*
X195897500Y-138430000D03*
D12*
X193357500Y-133350000D03*
D13*
X198437500Y-133350000D03*
D12*
X203517500Y-133350000D03*
D11*
X202247500Y-135890000D03*
D15*
X192147500Y-138430000D03*
D14*
X200977500Y-128270000D03*
D15*
X205997500Y-135890000D03*
D14*
X194627500Y-130810000D03*
G04 #@! TD*
D12*
G04 #@! TO.C,SW31*
X231457500Y-114300000D03*
D11*
X233997500Y-119380000D03*
D12*
X241617500Y-114300000D03*
D11*
X240347500Y-116840000D03*
D13*
X236537500Y-114300000D03*
D15*
X230247500Y-119380000D03*
D14*
X239077500Y-109220000D03*
D15*
X244097500Y-116840000D03*
D14*
X232727500Y-111760000D03*
G04 #@! TD*
D11*
G04 #@! TO.C,SW27*
X164147500Y-116840000D03*
D12*
X155257500Y-114300000D03*
X165417500Y-114300000D03*
D11*
X157797500Y-119380000D03*
D13*
X160337500Y-114300000D03*
D15*
X154047500Y-119380000D03*
D14*
X162877500Y-109220000D03*
D15*
X167897500Y-116840000D03*
D14*
X156527500Y-111760000D03*
G04 #@! TD*
D12*
G04 #@! TO.C,SW34*
X98107500Y-133350000D03*
D11*
X106997500Y-135890000D03*
X100647500Y-138430000D03*
D13*
X103187500Y-133350000D03*
D12*
X108267500Y-133350000D03*
D15*
X96897500Y-138430000D03*
D14*
X105727500Y-128270000D03*
D15*
X110747500Y-135890000D03*
D14*
X99377500Y-130810000D03*
G04 #@! TD*
D12*
G04 #@! TO.C,SW15*
X127317500Y-95250000D03*
D11*
X126047500Y-97790000D03*
D13*
X122237500Y-95250000D03*
D12*
X117157500Y-95250000D03*
D11*
X119697500Y-100330000D03*
D15*
X115947500Y-100330000D03*
D14*
X124777500Y-90170000D03*
X118427500Y-92710000D03*
D15*
X129797500Y-97790000D03*
G04 #@! TD*
D10*
G04 #@! TO.C,H2*
X112712500Y-65881250D03*
G04 #@! TD*
D22*
G04 #@! TO.C,D22*
X99287500Y-123031250D03*
D23*
X101787500Y-123031250D03*
X104587500Y-123031250D03*
D24*
X107087500Y-123031250D03*
G04 #@! TD*
D22*
G04 #@! TO.C,D15*
X213587500Y-103981250D03*
D23*
X216087500Y-103981250D03*
D24*
X221387500Y-103981250D03*
D23*
X218887500Y-103981250D03*
G04 #@! TD*
D22*
G04 #@! TO.C,D1*
X61187500Y-84931250D03*
D23*
X63687500Y-84931250D03*
X66487500Y-84931250D03*
D24*
X68987500Y-84931250D03*
G04 #@! TD*
D23*
G04 #@! TO.C,D19*
X197037500Y-105568750D03*
D22*
X194537500Y-105568750D03*
D23*
X199837500Y-105568750D03*
D24*
X202337500Y-105568750D03*
G04 #@! TD*
D22*
G04 #@! TO.C,D7*
X118337500Y-86518750D03*
D23*
X120837500Y-86518750D03*
X123637500Y-86518750D03*
D24*
X126137500Y-86518750D03*
G04 #@! TD*
D22*
G04 #@! TO.C,D29*
X194537500Y-124618750D03*
D23*
X197037500Y-124618750D03*
D24*
X202337500Y-124618750D03*
D23*
X199837500Y-124618750D03*
G04 #@! TD*
D22*
G04 #@! TO.C,D26*
X80237500Y-124618750D03*
D23*
X82737500Y-124618750D03*
X85537500Y-124618750D03*
D24*
X88037500Y-124618750D03*
G04 #@! TD*
D23*
G04 #@! TO.C,D8*
X158937500Y-86518750D03*
D22*
X156437500Y-86518750D03*
D23*
X161737500Y-86518750D03*
D24*
X164237500Y-86518750D03*
G04 #@! TD*
D23*
G04 #@! TO.C,D34*
X177987500Y-141287500D03*
D22*
X175487500Y-141287500D03*
D23*
X180787500Y-141287500D03*
D24*
X183287500Y-141287500D03*
G04 #@! TD*
D23*
G04 #@! TO.C,D14*
X177987500Y-103981250D03*
D22*
X175487500Y-103981250D03*
D23*
X180787500Y-103981250D03*
D24*
X183287500Y-103981250D03*
G04 #@! TD*
D23*
G04 #@! TO.C,D11*
X63687500Y-103981250D03*
D22*
X61187500Y-103981250D03*
D23*
X66487500Y-103981250D03*
D24*
X68987500Y-103981250D03*
G04 #@! TD*
D22*
G04 #@! TO.C,D37*
X118337500Y-141287500D03*
D23*
X120837500Y-141287500D03*
X123637500Y-141287500D03*
D24*
X126137500Y-141287500D03*
G04 #@! TD*
D23*
G04 #@! TO.C,D35*
X216087500Y-141287500D03*
D22*
X213587500Y-141287500D03*
D23*
X218887500Y-141287500D03*
D24*
X221387500Y-141287500D03*
G04 #@! TD*
D22*
G04 #@! TO.C,D25*
X213587500Y-123031250D03*
D23*
X216087500Y-123031250D03*
D24*
X221387500Y-123031250D03*
D23*
X218887500Y-123031250D03*
G04 #@! TD*
G04 #@! TO.C,D5*
X216693750Y-84931250D03*
D22*
X214193750Y-84931250D03*
D24*
X221993750Y-84931250D03*
D23*
X219493750Y-84931250D03*
G04 #@! TD*
G04 #@! TO.C,D39*
X197643750Y-141287500D03*
D22*
X195143750Y-141287500D03*
D23*
X200443750Y-141287500D03*
D24*
X202943750Y-141287500D03*
G04 #@! TD*
D22*
G04 #@! TO.C,D31*
X61187500Y-141287500D03*
D23*
X63687500Y-141287500D03*
X66487500Y-141287500D03*
D24*
X68987500Y-141287500D03*
G04 #@! TD*
D23*
G04 #@! TO.C,D10*
X235137500Y-86518750D03*
D22*
X232637500Y-86518750D03*
D24*
X240437500Y-86518750D03*
D23*
X237937500Y-86518750D03*
G04 #@! TD*
G04 #@! TO.C,D24*
X177987500Y-123031250D03*
D22*
X175487500Y-123031250D03*
D23*
X180787500Y-123031250D03*
D24*
X183287500Y-123031250D03*
G04 #@! TD*
D23*
G04 #@! TO.C,D23*
X144837500Y-122237500D03*
D22*
X142337500Y-122237500D03*
D24*
X150137500Y-122237500D03*
D23*
X147637500Y-122237500D03*
G04 #@! TD*
D22*
G04 #@! TO.C,D13*
X137993750Y-103981250D03*
D23*
X140493750Y-103981250D03*
X143293750Y-103981250D03*
D24*
X145793750Y-103981250D03*
G04 #@! TD*
D23*
G04 #@! TO.C,D16*
X82737500Y-105568750D03*
D22*
X80237500Y-105568750D03*
D24*
X88037500Y-105568750D03*
D23*
X85537500Y-105568750D03*
G04 #@! TD*
G04 #@! TO.C,D27*
X120837500Y-124618750D03*
D22*
X118337500Y-124618750D03*
D23*
X123637500Y-124618750D03*
D24*
X126137500Y-124618750D03*
G04 #@! TD*
D23*
G04 #@! TO.C,D40*
X235137500Y-141287500D03*
D22*
X232637500Y-141287500D03*
D24*
X240437500Y-141287500D03*
D23*
X237937500Y-141287500D03*
G04 #@! TD*
G04 #@! TO.C,D20*
X235137500Y-105568750D03*
D22*
X232637500Y-105568750D03*
D24*
X240437500Y-105568750D03*
D23*
X237937500Y-105568750D03*
G04 #@! TD*
D22*
G04 #@! TO.C,D4*
X175487500Y-84931250D03*
D23*
X177987500Y-84931250D03*
X180787500Y-84931250D03*
D24*
X183287500Y-84931250D03*
G04 #@! TD*
D25*
G04 #@! TO.C,D33*
X130968750Y-137131250D03*
D22*
X130968750Y-139631250D03*
D25*
X130968750Y-134331250D03*
D24*
X130968750Y-131831250D03*
G04 #@! TD*
D23*
G04 #@! TO.C,D28*
X154175000Y-124618750D03*
D22*
X151675000Y-124618750D03*
D23*
X156975000Y-124618750D03*
D24*
X159475000Y-124618750D03*
G04 #@! TD*
D23*
G04 #@! TO.C,D32*
X101787500Y-141287500D03*
D22*
X99287500Y-141287500D03*
D23*
X104587500Y-141287500D03*
D24*
X107087500Y-141287500D03*
G04 #@! TD*
D22*
G04 #@! TO.C,D30*
X232637500Y-124618750D03*
D23*
X235137500Y-124618750D03*
X237937500Y-124618750D03*
D24*
X240437500Y-124618750D03*
G04 #@! TD*
D22*
G04 #@! TO.C,D2*
X99475000Y-84931250D03*
D23*
X101975000Y-84931250D03*
X104775000Y-84931250D03*
D24*
X107275000Y-84931250D03*
G04 #@! TD*
D23*
G04 #@! TO.C,D17*
X120837500Y-105568750D03*
D22*
X118337500Y-105568750D03*
D23*
X123637500Y-105568750D03*
D24*
X126137500Y-105568750D03*
G04 #@! TD*
D22*
G04 #@! TO.C,D6*
X80237500Y-86518750D03*
D23*
X82737500Y-86518750D03*
D24*
X88037500Y-86518750D03*
D23*
X85537500Y-86518750D03*
G04 #@! TD*
D22*
G04 #@! TO.C,D9*
X194537500Y-86518750D03*
D23*
X197037500Y-86518750D03*
D24*
X202337500Y-86518750D03*
D23*
X199837500Y-86518750D03*
G04 #@! TD*
G04 #@! TO.C,D36*
X82737500Y-141287500D03*
D22*
X80237500Y-141287500D03*
D24*
X88037500Y-141287500D03*
D23*
X85537500Y-141287500D03*
G04 #@! TD*
D22*
G04 #@! TO.C,D38*
X169068750Y-139631250D03*
D25*
X169068750Y-137131250D03*
X169068750Y-134331250D03*
D24*
X169068750Y-131831250D03*
G04 #@! TD*
D22*
G04 #@! TO.C,D21*
X61187500Y-123031250D03*
D23*
X63687500Y-123031250D03*
X66487500Y-123031250D03*
D24*
X68987500Y-123031250D03*
G04 #@! TD*
D22*
G04 #@! TO.C,D3*
X137387500Y-84931250D03*
D23*
X139887500Y-84931250D03*
D24*
X145187500Y-84931250D03*
D23*
X142687500Y-84931250D03*
G04 #@! TD*
G04 #@! TO.C,D12*
X101787500Y-103981250D03*
D22*
X99287500Y-103981250D03*
D23*
X104587500Y-103981250D03*
D24*
X107087500Y-103981250D03*
G04 #@! TD*
D22*
G04 #@! TO.C,D18*
X156437500Y-105568750D03*
D23*
X158937500Y-105568750D03*
D24*
X164237500Y-105568750D03*
D23*
X161737500Y-105568750D03*
G04 #@! TD*
M02*
